<svg width="21" height="27" viewBox="0 0 21 27" fill="none" xmlns="http://www.w3.org/2000/svg">
<path d="M10.1127 0C9.75457 0.0380148 9.38698 0.0665259 9.02881 0.114044C4.73078 0.703273 1.17737 3.80148 0.234823 7.9641C-0.0856438 9.36114 -0.0667915 10.7582 0.225399 12.1647C0.687248 14.3791 1.57324 16.4034 2.84568 18.2471C4.28778 20.3189 5.88069 22.2672 7.66211 24.0539C8.62351 25.0137 9.61319 25.9356 10.584 26.8764C10.6311 26.924 10.6783 26.962 10.7348 27.0095C10.7537 27 10.782 26.9905 10.8008 26.9715C13.7604 24.3009 16.343 21.3263 18.426 17.905C19.378 16.3369 20.1603 14.7022 20.6599 12.925C21.6967 9.19958 20.2734 5.07497 17.4363 2.60401C15.7492 1.14044 13.8075 0.304118 11.602 0.0665259C11.3569 0.0380148 11.1213 0.0190074 10.8762 0C10.6217 0 10.3672 0 10.1127 0ZM6.0692 10.0264C6.0692 7.55544 8.05798 5.56917 10.4992 5.56917C12.9404 5.57867 14.9197 7.57444 14.9103 10.0454C14.9009 12.5069 12.931 14.4931 10.4898 14.4931C8.04856 14.4931 6.0692 12.4974 6.0692 10.0264Z" fill="white"/>
</svg>
