<svg width="30" height="30" viewBox="0 0 30 30" fill="none" xmlns="http://www.w3.org/2000/svg">
<path d="M27.2017 30C18.8621 30 10.5226 30 2.18307 30C2.15757 29.9898 2.13206 29.9796 2.10146 29.9745C1.10684 29.8266 0.300937 29.0972 0.0663082 28.123C0.040805 28.0209 0.0204025 27.9189 0 27.8169C0 20.3955 0 12.9741 0 5.55267C0.0102013 5.52717 0.0204025 5.50166 0.0255031 5.47106C0.198925 4.26731 1.21395 3.3798 2.4279 3.3747C3.70306 3.3696 4.97821 3.3747 6.25337 3.3747C6.30948 3.3747 6.36558 3.3747 6.42679 3.3747C6.42679 3.30329 6.42679 3.24719 6.42679 3.19618C6.42679 2.64531 6.42679 2.09954 6.42679 1.54868C6.42679 1.12532 6.67672 0.788682 7.08477 0.656066C7.11538 0.645864 7.14598 0.630563 7.17148 0.620361C7.2888 0.620361 7.40101 0.620361 7.51833 0.620361C7.52853 0.630563 7.53873 0.640764 7.55403 0.645864C8.03859 0.798883 8.26812 1.10492 8.26812 1.60988C8.26812 2.14545 8.26812 2.68102 8.26812 3.21658C8.26812 3.26759 8.26812 3.31859 8.26812 3.3696C10.1145 3.3696 11.9406 3.3696 13.7768 3.3696C13.7768 3.30839 13.7768 3.25739 13.7768 3.20128C13.7768 2.65041 13.7768 2.09954 13.7768 1.55378C13.7768 1.12532 14.0267 0.793783 14.4348 0.661166C14.4654 0.650965 14.496 0.635663 14.5215 0.625462C14.6388 0.625462 14.751 0.625462 14.8683 0.625462C14.8785 0.635663 14.8887 0.645864 14.904 0.650965C15.3886 0.803984 15.6181 1.11002 15.6181 1.61498C15.6181 2.15055 15.6181 2.68612 15.6181 3.22168C15.6181 3.27269 15.6181 3.32369 15.6181 3.3747C17.4646 3.3747 19.2906 3.3747 21.1268 3.3747C21.1268 3.31349 21.1268 3.26249 21.1268 3.20638C21.1268 2.65551 21.1268 2.10464 21.1268 1.55888C21.1268 1.13042 21.3767 0.793783 21.7848 0.666267C21.8154 0.656066 21.846 0.640764 21.8766 0.630563C21.9939 0.630563 22.1061 0.630563 22.2234 0.630563C22.2336 0.640764 22.2438 0.650965 22.2591 0.656066C22.7437 0.809085 22.9732 1.11512 22.9732 1.62008C22.9732 2.15055 22.9732 2.68102 22.9732 3.21148C22.9732 3.26759 22.9732 3.32369 22.9732 3.39C23.0446 3.39 23.1007 3.39 23.162 3.39C24.4371 3.39 25.7123 3.3849 26.9874 3.39C28.0841 3.3951 29.043 4.15 29.3184 5.21093C29.349 5.32824 29.3745 5.45066 29.4 5.56797C29.4 12.9894 29.4 20.4108 29.4 27.8322C29.3898 27.8526 29.3796 27.873 29.3745 27.8985C29.2317 28.7911 28.7471 29.4338 27.9259 29.8062C27.6862 29.8929 27.4363 29.9337 27.2017 30ZM6.42679 5.21093C6.36558 5.21093 6.32478 5.21093 6.27887 5.21093C5.02412 5.21093 3.77447 5.21093 2.51971 5.21093C2.07596 5.21093 1.83623 5.45576 1.83623 5.90461C1.83623 13.0914 1.83623 20.2782 1.83623 27.465C1.83623 27.924 2.07596 28.1638 2.53501 28.1638C10.6399 28.1638 18.7448 28.1638 26.8497 28.1638C27.2986 28.1638 27.5434 27.924 27.5434 27.4752C27.5434 20.2833 27.5434 13.0914 27.5434 5.89951C27.5434 5.45066 27.2986 5.21093 26.8497 5.21093C25.6001 5.21093 24.3555 5.21093 23.1058 5.21093C23.0599 5.21093 23.014 5.21093 22.9528 5.21093C22.9528 5.27724 22.9528 5.32824 22.9528 5.37925C22.9528 5.92502 22.9528 6.47078 22.9528 7.01655C22.9528 7.55722 22.555 7.97037 22.0347 7.97037C21.5145 7.97037 21.1217 7.55722 21.1166 7.01655C21.1166 6.47078 21.1166 5.92502 21.1166 5.37925C21.1166 5.32824 21.1166 5.27724 21.1166 5.22623C19.2702 5.22623 17.4442 5.22623 15.6181 5.22623C15.613 5.24663 15.6079 5.25173 15.6079 5.26193C15.6079 5.84341 15.6079 6.42998 15.6079 7.01145C15.6079 7.55722 15.2152 7.96527 14.6949 7.97037C14.1695 7.97037 13.7717 7.56232 13.7717 7.00635C13.7717 6.46058 13.7717 5.91481 13.7717 5.36905C13.7717 5.31804 13.7717 5.26703 13.7717 5.22113C11.9253 5.22113 10.0992 5.22113 8.26302 5.22113C8.26302 5.28234 8.26302 5.33334 8.26302 5.38435C8.26302 5.94542 8.26812 6.50139 8.26302 7.06246C8.25792 7.58272 7.82946 7.98057 7.3143 7.96527C6.82974 7.94997 6.43699 7.54702 6.43189 7.05225C6.42169 6.44528 6.42679 5.8383 6.42679 5.21093Z" fill="#30BA00"/>
<path d="M6.43188 14.3819C6.43188 13.4638 6.43188 12.561 6.43188 11.6479C7.65094 11.6479 8.86488 11.6479 10.0839 11.6479C10.0839 12.5559 10.0839 13.4638 10.0839 14.3819C8.87509 14.3819 7.66114 14.3819 6.43188 14.3819Z" fill="#30BA00"/>
<path d="M16.5158 14.387C15.2916 14.387 14.0828 14.387 12.8586 14.387C12.8586 13.474 12.8586 12.5661 12.8586 11.6479C14.0726 11.6479 15.2865 11.6479 16.5158 11.6479C16.5158 12.5559 16.5158 13.4638 16.5158 14.387Z" fill="#30BA00"/>
<path d="M22.9477 11.6479C22.9477 12.5661 22.9477 13.4689 22.9477 14.387C21.7287 14.387 20.5147 14.387 19.2957 14.387C19.2957 13.4791 19.2957 12.5712 19.2957 11.6479C20.5045 11.6479 21.7185 11.6479 22.9477 11.6479Z" fill="#30BA00"/>
<path d="M6.43188 18.9776C6.43188 18.0645 6.43188 17.1566 6.43188 16.2385C7.65094 16.2385 8.86488 16.2385 10.089 16.2385C10.089 17.1515 10.089 18.0594 10.089 18.9776C8.87509 18.9776 7.66114 18.9776 6.43188 18.9776Z" fill="#30BA00"/>
<path d="M16.5158 18.9776C15.2917 18.9776 14.0828 18.9776 12.8638 18.9776C12.8638 18.0645 12.8638 17.1566 12.8638 16.2385C14.0777 16.2385 15.2917 16.2385 16.5158 16.2385C16.5158 17.1464 16.5158 18.0543 16.5158 18.9776Z" fill="#30BA00"/>
<path d="M19.2905 16.2334C20.5147 16.2334 21.7235 16.2334 22.9477 16.2334C22.9477 17.1464 22.9477 18.0543 22.9477 18.9724C21.7337 18.9724 20.5198 18.9724 19.2905 18.9724C19.2905 18.0645 19.2905 17.1566 19.2905 16.2334Z" fill="#30BA00"/>
<path d="M10.0942 20.8291C10.0942 21.7472 10.0942 22.65 10.0942 23.563C8.87514 23.563 7.66119 23.563 6.44214 23.563C6.44214 22.6551 6.44214 21.7472 6.44214 20.8291C7.65099 20.8291 8.86494 20.8291 10.0942 20.8291Z" fill="#30BA00"/>
<path d="M12.8638 20.824C14.0879 20.824 15.2968 20.824 16.5158 20.824C16.5158 21.737 16.5158 22.6449 16.5158 23.563C15.3019 23.563 14.0879 23.563 12.8638 23.563C12.8638 22.6551 12.8638 21.7472 12.8638 20.824Z" fill="#30BA00"/>
<path d="M19.2855 23.563C19.2855 22.6449 19.2855 21.7421 19.2855 20.824C20.5046 20.824 21.7185 20.824 22.9376 20.824C22.9376 21.7319 22.9376 22.6398 22.9376 23.563C21.7287 23.563 20.5148 23.563 19.2855 23.563Z" fill="#30BA00"/>
</svg>
