<?xml version="1.0" encoding="UTF-8" standalone="no"?>
<!-- Created with Inkscape (http://www.inkscape.org/) -->

<svg
   xmlns:dc="http://purl.org/dc/elements/1.1/"
   xmlns:cc="http://creativecommons.org/ns#"
   xmlns:rdf="http://www.w3.org/1999/02/22-rdf-syntax-ns#"
   xmlns:svg="http://www.w3.org/2000/svg"
   xmlns="http://www.w3.org/2000/svg"
   xmlns:sodipodi="http://sodipodi.sourceforge.net/DTD/sodipodi-0.dtd"
   xmlns:inkscape="http://www.inkscape.org/namespaces/inkscape"
   version="1.1"
   id="svg130"
   width="50"
   height="50"
   viewBox="0 0 237.22836 237.00087"
   sodipodi:docname="map-marker.svg"
   inkscape:version="0.92.4 (unknown)">
  <path
     style="fill:#5d5d5d"
     d="M 109.11171,236.75736 C 88.366193,233.87388 79.654533,231.41592 66.169503,224.6414 53.861923,218.4584 46.471683,213.29279 37.226503,204.41094 20.456073,188.29957 9.0351625,169.04109 3.5633725,147.64662 -6.8359475,106.98565 5.9422725,62.419678 36.465643,32.89493 62.641113,7.5758366 100.29607,-4.2047844 137.28885,1.3516736 c 9.51055,1.428522 24.69361,6.158548 32.82286,10.2254114 57.74994,28.890858 82.53533,95.472315 57.23764,153.758515 -6.79452,15.65466 -13.14372,25.03096 -25.2667,37.3131 -15.55614,15.76037 -38.73413,27.95687 -61.38337,32.30057 -7.79167,1.4943 -26.24548,2.55061 -31.58757,1.80809 z m 16.34084,-58.83697 c 3.39836,-5.17837 11.48556,-16.31587 17.97156,-24.75 18.54834,-24.1195 22.06363,-29.96869 24.67996,-41.06563 4.16902,-17.682565 -0.49704,-35.698749 -12.47685,-48.174476 -19.56139,-20.371165 -54.13805,-20.494482 -74.044417,-0.264078 -8.23509,8.369137 -12.7683,19.230298 -13.6355,32.669409 -1.00539,15.580555 3.58514,27.898615 16.76999,44.999985 13.5176,17.53296 22.355937,29.51162 27.879037,37.78463 3.01654,4.51845 5.75299,8.21537 6.081,8.21537 0.32802,0 3.37687,-4.23685 6.77522,-9.41521 z m -17.84084,-50.45675 c -23.762697,-9.93771 -25.183147,-43.573996 -2.31265,-54.763491 8.26766,-4.044988 18.35764,-4.044988 26.6253,0 21.72739,10.630225 21.89213,42.324621 0.27737,53.363401 -6.84643,3.4965 -18.05161,4.1345 -24.59002,1.40009 z"
     id="path146"
     inkscape:connector-curvature="0" />
</svg>
