<svg width="100" height="40" viewBox="0 0 100 40" fill="none" xmlns="http://www.w3.org/2000/svg">
<path d="M25.0933 11.6604L25.5597 6.71641H25.2799L23.6007 11.194L15.1119 25.9328H13.8993L4.94403 11.194L3.26493 6.8097H2.98507L3.63806 11.6604V33.5821H0V0.932831H2.89179L13.0597 17.6306L14.6455 21.2687H14.7388L16.2313 17.5373L25.9328 0.932831H28.9179V33.5821H25.0933V11.6604Z" fill="white"/>
<path d="M49.1605 29.944C48.6008 30.0373 48.0411 30.1306 47.2948 30.1306C46.5485 30.1306 45.8955 30.2239 45.3358 30.2239C43.8433 30.2239 42.5373 29.944 41.2314 29.4776C39.9254 29.0112 38.806 28.1716 37.8732 27.1455C36.9403 26.1194 36.1941 24.7201 35.6344 23.1343C35.0747 21.4552 34.7948 19.5896 34.7948 17.3507C34.7948 15.2052 35.0747 13.3396 35.6344 11.6604C36.1941 9.98134 36.9403 8.58209 37.9664 7.46269C38.9926 6.34328 40.2052 5.41045 41.6045 4.85075C43.0038 4.19776 44.5896 3.91791 46.2687 3.91791C46.6418 3.91791 47.2015 3.91791 47.7612 3.91791C48.4142 3.91791 48.8806 4.01119 49.1605 4.01119V0H52.9851V4.19776C53.5448 4.01119 54.1978 3.91791 54.9441 3.91791C55.6903 3.91791 56.3433 3.91791 56.8097 3.91791C58.3023 3.91791 59.7015 4.19776 61.0075 4.75746C62.3135 5.31716 63.4329 6.06343 64.3657 7.18284C65.2985 8.20895 66.0448 9.60821 66.6045 11.194C67.1642 12.8731 67.4441 14.7388 67.4441 16.8843C67.4441 19.1231 67.1642 21.0821 66.5112 22.7612C65.8582 24.4403 65.112 25.8396 64.0858 26.959C63.0597 28.0784 61.847 28.9179 60.4478 29.4776C59.0485 30.0373 57.6493 30.3172 56.0635 30.3172C55.6903 30.3172 55.2239 30.3172 54.5709 30.2239C53.9179 30.2239 53.3582 30.1306 53.0784 29.944V34.6082H49.2538V29.944H49.1605ZM46.0821 26.959C46.2687 26.959 46.4552 26.959 46.7351 26.959C47.0149 26.959 47.2948 26.959 47.5747 26.959C47.8545 26.959 48.2276 26.8657 48.5075 26.8657C48.7873 26.7724 49.0672 26.7724 49.2538 26.6791V7.27612C48.8806 7.18284 48.4142 7.18284 47.8545 7.18284C47.2948 7.18284 46.8284 7.18284 46.362 7.18284C45.3358 7.18284 44.3097 7.3694 43.3769 7.83582C42.4441 8.30224 41.6978 8.86194 40.9515 9.79478C40.2985 10.6343 39.7388 11.7537 39.3657 12.9664C38.9926 14.2724 38.806 15.7649 38.806 17.444C38.806 18.9366 38.9926 20.2425 39.2724 21.4552C39.6455 22.6679 40.112 23.694 40.765 24.5336C41.4179 25.3731 42.1642 26.0261 43.0038 26.3993C44.0299 26.6791 44.9627 26.959 46.0821 26.959ZM56.3433 7.08955C55.8769 7.08955 55.3172 7.08955 54.6642 7.08955C54.0112 7.08955 53.4515 7.18284 52.9851 7.3694V26.7724C53.2649 26.8657 53.7314 26.8657 54.1978 26.8657C54.6642 26.8657 55.2239 26.8657 55.6903 26.8657C56.7164 26.8657 57.7426 26.6791 58.6754 26.306C59.6082 25.9328 60.4478 25.2799 61.1008 24.4403C61.847 23.6007 62.3135 22.5746 62.7799 21.2687C63.153 19.9627 63.4329 18.4701 63.4329 16.791C63.4329 15.3918 63.2463 14.0858 62.9664 12.8731C62.6866 11.6604 62.2202 10.6343 61.5672 9.79478C61.0075 8.95522 60.2612 8.30224 59.3284 7.83582C58.4888 7.27612 57.4627 7.08955 56.3433 7.08955Z" fill="white"/>
<path d="M100 39.6455H97.2948L96.5485 33.5821H73.2276V0.932831H77.0522V30.1306H91.791V0.932831H95.6157V30.1306H100V39.6455Z" fill="white"/>
</svg>
