<svg width="87" height="81" viewBox="0 0 87 81" fill="none" xmlns="http://www.w3.org/2000/svg">
<path d="M41.9604 27.7124C41.9604 27.9974 41.8892 28.2111 41.8892 28.4248C41.8892 33.4116 41.818 38.3984 41.9604 43.314C42.1742 50.438 44.2401 57.0633 47.8021 63.2612C51.4354 69.3879 56.2797 74.2322 62.2639 78.0079C62.6913 78.2929 62.9763 78.2929 63.4749 78.0079C69.6728 74.2322 74.5884 69.1741 78.2216 62.905C81.2137 57.7045 83.2797 52.1477 83.6359 46.0923C83.9921 40.8918 83.8496 35.62 83.9921 30.4195C83.9921 29.5646 83.9921 28.7098 83.9921 27.7124C83.7071 27.7124 83.4222 27.6412 83.1372 27.6412C80.8575 27.6412 78.5778 27.6412 76.2269 27.6412C75.372 27.6412 74.8734 27.285 74.7309 26.715C74.5172 25.8602 75.0158 25.1478 75.942 25.1478C77.0818 25.0765 78.1504 25.1478 79.2902 25.1478C81.1425 25.1478 82.9947 25.1478 84.9182 25.1478C86.1293 25.1478 86.5567 25.5752 86.5567 26.7863C86.5567 31.7018 86.628 36.6887 86.5567 41.6042C86.4855 51.7203 83.3509 60.9103 77.2243 68.9604C73.5198 73.8047 69.0317 77.7229 63.6887 80.7863C63.1187 81.0712 62.6201 81.0712 62.1214 80.7863C52.4327 75.1583 45.5937 66.9657 41.818 56.3509C40.1082 51.5066 39.3245 46.4485 39.3245 41.3193C39.3245 36.5462 39.3245 31.8443 39.3245 27.0712C39.3245 25.5752 39.6807 25.219 41.1768 25.219C51.0792 25.219 60.9815 25.219 70.8839 25.219C71.1689 25.219 71.3826 25.219 71.6676 25.2902C72.3087 25.4327 72.6649 25.8602 72.6649 26.5013C72.6649 27.1425 72.3087 27.5699 71.7388 27.7124C71.4538 27.7836 71.0976 27.7836 70.7414 27.7836C61.5515 27.7836 52.3615 27.7836 43.1003 27.7836C42.8153 27.7124 42.3879 27.7124 41.9604 27.7124Z" fill="white"/>
<path d="M2.63588 2.63588C2.63588 2.77836 2.56464 2.92084 2.56464 3.06332C2.56464 8.26385 2.4934 13.4644 2.70712 18.6649C3.06332 27.8549 6.34037 36.0475 12.1108 43.2427C15.2454 47.0897 18.9499 50.2955 23.153 52.9314C23.5805 53.2164 23.8654 53.1451 24.2216 52.8602C28.6385 50.153 32.4142 46.8047 35.5488 42.8153C35.7625 42.5303 35.9763 42.3166 36.19 42.0317C36.6887 41.533 37.3298 41.4617 37.8285 41.8892C38.3272 42.3166 38.5409 42.9578 38.1135 43.5277C37.6148 44.2401 37.0449 44.9525 36.4749 45.6649C33.1267 49.6544 29.1372 52.9314 24.6491 55.5673C23.9367 55.9947 23.3668 55.9947 22.6544 55.5673C14.8179 51.0079 8.83377 44.5963 4.77309 36.4749C1.56728 30.2058 0 23.5092 0 16.3852C0 11.4697 0 6.62533 0 1.70976C0 0.498681 0.498681 0 1.63852 0C5.34301 0 9.04749 0 12.6807 0C13.6069 0 14.1055 0.356201 14.248 0.997361C14.3905 1.70976 13.9631 2.42216 13.2507 2.4934C12.8232 2.56464 12.3958 2.56464 11.9683 2.56464C9.04749 2.56464 6.12665 2.56464 3.2058 2.56464C3.06332 2.56464 2.8496 2.56464 2.63588 2.63588Z" fill="white"/>
<path d="M77.3668 61.2665C77.3668 62.4063 76.2982 62.905 75.3008 62.4063C74.0897 61.7652 72.9499 61.0528 71.7388 60.5541C64.7573 57.7045 57.9182 58.1319 51.2929 61.8364C50.9367 62.0501 50.5805 62.2639 50.2243 62.4776C49.6544 62.7625 49.1557 62.8338 48.657 62.4063C48.1583 61.9789 48.0871 61.4802 48.3008 60.8391C49.1557 58.1319 50.5805 55.8523 52.7177 54C58.4881 48.942 66.8232 48.8707 72.6649 53.7863C74.8734 55.6385 76.3694 57.9895 77.2955 60.6966C77.2955 60.9103 77.3668 61.124 77.3668 61.2665ZM73.0211 58.1319C70.2428 54.285 66.467 52.4327 61.694 52.7889C57.7757 53.0739 54.7124 54.9261 52.504 58.1319C55.781 56.7784 59.2005 56.066 62.6913 56.066C66.2533 56.066 69.7441 56.7784 73.0211 58.1319Z" fill="white"/>
<path d="M23.438 39.0395C16.8839 39.0395 11.0422 34.8364 8.97625 28.5673C8.76253 27.9973 8.69129 27.4274 9.18997 26.9287C9.68865 26.43 10.2586 26.43 11.0422 26.9287C13.2507 28.3535 15.6016 29.3509 18.1662 29.9208C24.0792 31.2031 29.7071 30.4195 34.9789 27.3562C35.3351 27.1425 35.62 27 35.9762 26.7862C36.4749 26.5013 36.9736 26.43 37.4723 26.8575C37.971 27.2849 38.0422 27.7836 37.8997 28.3535C36.9024 31.4881 35.1214 34.0527 32.4855 36.0475C29.8496 38.0422 26.7863 39.0395 23.438 39.0395ZM13.1082 31.0607C15.8153 34.7651 19.4485 36.6174 24.0079 36.4749C28.6385 36.3324 32.6992 33.1979 33.6966 30.9894C26.8575 33.839 20.0185 33.839 13.1082 31.0607Z" fill="white"/>
<path d="M44.6675 2.56464C42.2454 2.56464 39.8945 2.56464 37.5435 2.56464C30.9894 2.56464 24.4353 2.56464 17.8813 2.56464C17.6675 2.56464 17.3826 2.56464 17.1689 2.4934C16.5277 2.35092 16.1715 1.92348 16.1003 1.35356C16.029 0.783641 16.3852 0.28496 16.9551 0.14248C17.2401 0 17.5251 0 17.81 0C27.0712 0 36.2612 0 45.5224 0C46.8047 0 47.2322 0.427441 47.2322 1.70976C47.2322 7.33773 47.2322 12.9657 47.1609 18.5937C47.1609 19.3773 47.0897 20.1609 47.0185 20.9446C46.9472 21.8707 46.3773 22.4406 45.5937 22.4406C44.81 22.3694 44.3826 21.7995 44.3826 20.8734C44.4538 15.1029 44.5251 9.33245 44.5963 3.56201C44.6675 3.2058 44.6675 2.99208 44.6675 2.56464Z" fill="white"/>
<path d="M12.9657 21.657C10.2586 21.5857 7.90765 20.5884 5.98417 18.4512C5.27177 17.6675 5.27177 17.0976 5.98417 16.314C9.68865 12.0396 16.5277 12.0396 20.1609 16.3852C20.6596 17.0264 20.6596 17.6675 20.1609 18.3087C18.2375 20.5171 15.8153 21.5857 12.9657 21.657ZM17.3826 17.4538C15.1741 15.2454 10.686 15.2454 8.69129 17.4538C10.8997 19.591 14.7467 19.6622 17.3826 17.4538Z" fill="white"/>
<path d="M34.1952 21.657C31.4169 21.5857 29.066 20.5171 27.1425 18.3799C26.5013 17.6675 26.5726 17.0976 27.1425 16.4565C30.7045 12.1108 37.6148 12.1108 41.3193 16.3852C41.9604 17.0976 41.9604 17.7388 41.3193 18.4512C39.3958 20.5884 37.0449 21.5857 34.1952 21.657ZM38.6121 17.3826C35.905 14.8892 31.5594 15.4591 29.9208 17.4538C32.4142 19.591 36.2612 19.591 38.6121 17.3826Z" fill="white"/>
<path d="M72.6649 38.1847C76.1557 38.3984 78.934 39.8945 80.715 43.1003C81.1425 43.8839 81.0712 44.5251 80.3588 45.0238C75.7995 48.4433 69.3879 47.161 66.5383 42.2454C65.9683 41.248 66.1108 40.6781 67.0369 40.037C68.6755 38.8259 70.5277 38.256 72.6649 38.1847ZM69.3166 41.6755C71.2401 44.3114 75.3008 45.1663 77.8654 43.5277C76.1557 40.8918 72.1662 40.037 69.3166 41.6755Z" fill="white"/>
<path d="M51.7916 46.876C49.4406 46.9472 47.3034 46.2348 45.4512 44.7388C44.8813 44.3113 44.81 43.5989 45.1662 42.8865C47.5884 38.5409 53.2876 36.9024 57.7045 39.2533C58.2032 39.5383 58.6306 39.8232 59.0581 40.1082C59.8417 40.6781 59.9129 41.3193 59.4143 42.1741C57.847 45.0237 55.0686 46.6623 51.7916 46.876ZM48.0158 43.3852C50.9367 45.2375 55.2111 44.0264 56.5647 41.6755C53.7863 40.0369 50.0818 40.7493 48.0158 43.3852Z" fill="white"/>
</svg>
