<svg width="80" height="80" viewBox="0 0 80 80" fill="none" xmlns="http://www.w3.org/2000/svg">
<path d="M79.9996 40.062C79.9376 62.1394 62.0152 79.9998 39.9998 79.9998C17.8603 79.9998 -0.0620989 62.0154 -8.36857e-05 39.938C0.0619316 17.7985 17.9843 -0.0618542 40.0618 0.00016101C62.1392 0.0621763 80.0616 17.9846 79.9996 40.062ZM77.519 40C77.519 19.2869 60.7749 2.48077 40.0618 2.48077C19.3487 2.48077 2.54254 19.2869 2.48053 40C2.48053 60.7131 19.2246 77.5192 39.9377 77.5192C60.6508 77.5192 77.457 60.7131 77.519 40Z" fill="white"/>
<path d="M73.302 40C73.302 58.3566 58.2943 73.3643 39.9378 73.3022C21.5813 73.2402 6.63563 58.2945 6.69764 40C6.69764 21.6435 21.7053 6.63584 40.0618 6.69785C58.4184 6.75987 73.364 21.7055 73.302 40ZM67.2865 54.2636C69.4571 50.1705 70.5734 45.8295 70.8214 41.1783C68.5269 41.1783 66.3563 41.1783 64.1238 41.1783C64.1238 40.3101 64.1238 39.5659 64.1238 38.6977C66.3563 38.6977 68.5889 38.6977 70.7594 38.6977C70.9454 35.4109 68.7129 27.3489 67.1625 25.7365C66.0462 26.3567 64.93 27.0389 63.7517 27.659C63.3176 26.9148 62.9455 26.2327 62.5114 25.4885C63.6897 24.8063 64.8059 24.1241 65.9842 23.442C63.4416 19.535 60.3408 16.3722 56.4339 13.8916C55.7517 15.0699 55.0695 16.1862 54.3874 17.3645C53.6432 16.9304 52.961 16.5583 52.2168 16.1242C52.899 14.9459 53.5192 13.8296 54.2013 12.6513C50.1083 10.4808 45.7673 9.36451 41.1161 9.11645C41.1161 11.411 41.1161 13.5815 41.1161 15.8141C40.2479 15.8141 39.4417 15.8141 38.6355 15.8141C38.6355 13.5815 38.6355 11.349 38.6355 9.11645C33.9844 9.36451 29.7053 10.4808 25.6123 12.6513C26.2945 13.8296 26.9766 15.0079 27.5968 16.1242C26.8526 16.5583 26.1704 16.9304 25.4262 17.3645C24.7441 16.1862 24.0619 15.0699 23.4418 13.9536C20.527 15.6281 15.0697 21.0854 14.0775 23.566C15.1937 24.2482 16.31 24.8683 17.4883 25.5505C17.0542 26.2947 16.6821 26.9768 16.248 27.721C15.0697 27.0389 13.9534 26.4187 12.7751 25.7365C10.6046 29.8295 9.48833 34.1706 9.24027 38.7597C11.5348 38.7597 13.7054 38.7597 15.9379 38.7597C15.9379 39.628 15.9379 40.4342 15.9379 41.2403C13.7054 41.2403 11.4728 41.2403 9.24027 41.2403C9.48833 45.8915 10.6046 50.1705 12.7751 54.2636C13.9534 53.5814 15.1317 52.9612 16.248 52.2791C16.6821 53.0233 17.0542 53.7054 17.4883 54.4496C16.31 55.1318 15.1937 55.8139 14.0154 56.4961C16.5581 60.4031 19.6588 63.5658 23.5658 66.0465C24.248 64.8682 24.9301 63.7519 25.6123 62.5736C26.3565 63.0077 27.0386 63.3798 27.7828 63.8139C27.1007 64.9922 26.4805 66.1085 25.7983 67.2868C28.465 69.0852 36.465 71.2557 38.8215 70.7596C38.8215 68.5891 38.8215 66.3565 38.8215 64.186C39.6898 64.186 40.496 64.186 41.3022 64.186C41.3022 66.4185 41.3022 68.6511 41.3022 70.8216C44.4649 71.0697 52.4649 68.8371 54.2633 67.2868C53.6432 66.1705 52.961 65.0542 52.2789 63.8759C53.023 63.4418 53.7052 63.0697 54.4494 62.6356C55.1316 63.8139 55.8137 64.9302 56.4959 66.1085C60.4029 63.5658 63.5656 60.4651 66.0462 56.5581C64.868 55.8759 63.7517 55.1938 62.5734 54.5116C63.0075 53.7674 63.3796 53.0853 63.8137 52.3411C64.93 52.9612 66.0462 53.5814 67.2865 54.2636Z" fill="white"/>
<path d="M38.7595 18.6668C39.6277 18.6668 40.4339 18.6668 41.3021 18.6668C41.3021 18.9769 41.3021 19.2249 41.3021 19.535C41.3021 24.8683 41.3021 30.2637 41.3021 35.597C41.3021 36.0931 41.4261 36.3412 41.9223 36.5892C43.2866 37.3334 44.0308 38.5737 43.9688 40.1241C43.9688 40.6202 44.0928 40.8683 44.5269 41.1783C49.178 43.845 53.7672 46.5117 58.3563 49.1783C58.6044 49.3023 58.8524 49.4884 59.2245 49.6744C58.7904 50.4186 58.4183 51.1008 57.9842 51.845C56.1237 50.7907 54.2633 49.7364 52.4648 48.6202C49.3641 46.8217 46.3253 45.0853 43.2246 43.2869C42.8525 43.0388 42.6044 43.1008 42.2323 43.2869C40.3719 44.5272 37.8913 43.907 36.775 42.0466C35.5967 40.0621 36.2789 37.6435 38.3254 36.5892C38.7595 36.3412 38.8215 36.0931 38.8215 35.659C38.8215 30.2637 38.8215 24.9303 38.8215 19.535C38.7595 19.2249 38.7595 18.9769 38.7595 18.6668ZM39.9998 38.5737C39.2556 38.5737 38.5734 39.2559 38.5734 40.0001C38.5734 40.7442 39.2556 41.3644 39.9378 41.4264C40.682 41.4264 41.3641 40.8062 41.3641 40.0621C41.4261 39.2559 40.744 38.5737 39.9998 38.5737Z" fill="white"/>
</svg>
