<svg width="72" height="83" viewBox="0 0 72 83" fill="none" xmlns="http://www.w3.org/2000/svg">
<path d="M23.0358 47.1198C21.9594 44.8142 20.8829 42.5087 19.8065 40.2031C19.7347 40.059 19.5912 39.9149 19.4477 39.8429C17.5818 38.9783 16.5772 37.3932 16.1466 35.4479C15.716 33.5747 15.3572 31.6293 15.8595 29.684C16.0031 29.0356 16.2901 28.3872 16.7925 27.9549C17.2948 27.4505 17.3666 27.0182 17.3666 26.3698C17.3666 23.2717 17.223 20.2457 17.3666 17.1476C17.5101 12.8247 19.8065 10.0148 23.8252 8.42969C26.7675 7.27691 29.925 6.98872 33.0108 6.48438C35.666 5.98003 38.3213 5.3316 40.9765 4.61111C41.7659 4.39497 42.4835 3.74653 43.1294 3.17014C44.0623 2.16146 45.1387 1.15278 46.2869 0C46.4304 1.58507 46.574 2.95399 46.7175 4.32292C46.861 5.61979 47.0763 6.84462 47.3633 8.14149C47.4351 8.42969 47.7222 8.71788 48.0092 8.86198C51.8126 10.7352 53.7502 14.0495 54.2526 18.0842C54.6114 21.0382 54.5396 23.9922 54.6831 26.9462C54.6831 27.3064 54.8984 27.7387 55.1855 28.0269C55.9031 28.7474 56.1902 29.684 56.2619 30.6927C56.4054 32.8542 55.9749 34.9436 55.1855 36.9609C54.6831 38.3299 53.6785 39.4106 52.3867 40.1311C52.1714 40.2752 51.9562 40.4193 51.8844 40.6354C50.8797 42.8689 49.875 45.1024 48.8704 47.2639C48.7986 47.2639 48.8704 47.2639 48.9421 47.2639C50.1621 46.6875 50.7362 46.8316 51.3821 48.1285C52.2432 49.8576 53.1044 51.5868 53.8937 53.316C54.1808 53.9644 54.6114 54.3247 55.1855 54.6849C60.5677 57.7109 64.8734 61.7457 68.031 67.1493C70.8297 72.0486 72.1932 77.3082 71.9779 83C48.0092 83 24.1122 83 0 83C0.0717626 81.3429 0.0717626 79.7578 0.358813 78.1007C1.50702 69.4549 5.88454 62.7543 12.6302 57.4948C14.0655 56.4141 15.716 55.4774 17.223 54.4688C17.5101 54.2526 17.8689 53.9644 18.0124 53.6042C18.8736 51.875 19.7347 50.0738 20.5959 48.3446C21.17 46.6875 21.6006 46.5434 23.0358 47.1198ZM43.9905 6.05208C43.4882 6.34028 42.9141 6.70052 42.2682 6.91667C39.3977 8.21354 36.3119 8.64583 33.2261 9.15017C30.6427 9.58247 28.0592 9.94271 25.4757 10.5911C22.6052 11.3116 20.5241 13.0408 20.0218 16.2109C19.8783 17.1476 19.8065 18.1562 19.8065 19.0929C19.8065 22.263 19.8783 25.4332 19.8783 28.6033C19.8783 28.8915 19.8783 29.1797 19.8783 29.4679C18.5865 29.3958 18.2277 29.684 18.2995 30.8368C18.3712 32.2778 18.5148 33.6467 18.8018 35.0877C19.0889 36.2405 19.8065 37.2491 21.0265 37.5373C21.7441 37.7535 21.9594 38.0417 22.1747 38.6901C23.6817 42.8689 25.691 46.7595 29.1356 49.6415C31.7191 51.875 34.6614 52.9557 38.106 52.0911C41.12 51.2986 43.2729 49.3533 45.1387 46.9757C47.1481 44.3819 48.5833 41.5 49.7315 38.4019C49.8033 38.1137 50.0186 37.7535 50.2339 37.7535C51.5256 37.4653 52.315 36.6007 52.602 35.4479C52.9608 34.0069 53.2479 32.4939 53.3914 30.9809C53.5349 29.684 53.1761 29.3958 51.8844 29.3958C51.8844 29.0356 51.8844 28.6753 51.8844 28.2431C51.8126 25.2891 51.9562 22.3351 51.6691 19.4531C51.3103 15.4184 49.5162 12.1762 45.641 10.447C45.4258 10.375 45.2105 10.0868 45.1387 9.79861C44.7081 8.64583 44.3493 7.34896 43.9905 6.05208ZM51.7409 80.046C51.7409 79.6858 51.7409 79.3976 51.7409 79.1094C51.7409 77.1641 51.7409 75.1467 51.7409 73.2014C51.7409 72.3368 52.2432 71.7604 53.0326 71.6884C53.822 71.6163 54.3961 72.1927 54.4678 73.1293C54.5396 74.3542 54.4678 75.579 54.4678 76.8038C54.4678 77.8845 54.4678 78.9653 54.4678 80.046C59.4195 80.046 64.2276 80.046 69.3227 80.046C68.9639 78.1007 68.7486 76.2274 68.2463 74.4262C66.0934 66.9332 61.3571 61.4575 54.8984 57.3507C54.1808 56.9184 53.6785 56.8464 52.8891 57.2786C48.7268 59.8003 44.5646 62.25 40.4024 64.6276C39.3259 65.276 38.6801 65.0599 38.106 63.9792C37.9624 63.691 37.8189 63.3307 37.6754 63.0425C37.1013 61.9618 36.5989 60.809 35.9531 59.5842C35.2355 61.0252 34.6614 62.322 34.0155 63.5469C33.2261 65.204 32.7238 65.3481 31.145 64.4115C26.9828 61.9618 22.8205 59.5842 18.6583 57.2066C18.3712 57.0625 17.8689 56.9905 17.6536 57.1346C10.7644 61.2413 5.81277 66.8611 3.58813 74.7144C3.08579 76.4436 2.87051 78.2448 2.58346 80.118C7.6786 80.118 12.4867 80.118 17.4383 80.118C17.4383 79.7578 17.4383 79.4696 17.4383 79.1094C17.4383 77.1641 17.4383 75.2188 17.4383 73.2734C17.4383 72.3368 18.0124 71.7604 18.8018 71.7604C19.5912 71.7604 20.0935 72.3368 20.1653 73.2734C20.1653 73.7778 20.1653 74.2821 20.1653 74.7865C20.1653 76.5156 20.1653 78.2448 20.1653 80.046C30.7144 80.046 41.12 80.046 51.7409 80.046ZM31.8626 61.7457C32.652 60.0885 33.4414 58.5035 34.3025 56.8464C30.3556 54.5408 26.5522 52.3073 22.6052 50.0017C21.8158 51.6589 21.0265 53.316 20.2371 54.9731C24.1122 57.2066 27.9157 59.4401 31.8626 61.7457ZM37.6036 56.8464C38.4648 58.5035 39.1824 60.1606 40.0436 61.7457C43.9905 59.4401 47.8657 57.2066 51.7409 54.9731C50.9515 53.316 50.1621 51.6589 49.3727 50.0017C45.354 52.3073 41.5506 54.5408 37.6036 56.8464Z" fill="white"/>
</svg>
