<svg width="80" height="72" viewBox="0 0 80 72" fill="none" xmlns="http://www.w3.org/2000/svg">
<path d="M79.0703 62.0463C70.8184 47.6213 62.5666 33.1333 54.3147 18.7084L45.622 3.46451C44.2991 1.19683 42.4094 0 39.9528 0C37.5591 0 35.7323 1.13384 34.4095 3.46451C23.2601 22.9918 12.1107 42.519 0.961237 62.0463C-0.298586 64.188 -0.298586 66.7076 0.835255 68.6604C1.9691 70.6761 4.17379 71.8729 6.63044 71.8729C14.3784 71.8729 22.1893 71.8729 29.9372 71.8729H40.5827H73.2751C75.7947 71.8729 77.9364 70.6761 79.1332 68.6604C80.3301 66.6446 80.2671 64.188 79.0703 62.0463ZM77.0545 66.7706C76.7396 67.5895 76.1727 68.2824 75.3538 68.5974C74.4089 68.9753 73.3381 68.9753 72.3932 68.9753C67.3539 68.9753 62.4406 68.9753 57.4643 68.9753H30.1261C22.3152 68.9753 14.5043 68.9753 6.75642 68.9753C5.4966 68.9753 4.23678 68.7863 3.3549 67.4005C2.53602 66.1407 2.53602 64.7549 3.41789 63.3061C10.9768 50.078 18.5358 36.7868 26.1577 23.5587L31.26 14.6139C31.8269 13.6691 32.3308 12.7242 32.8977 11.7793C34.2206 9.57465 35.5434 7.24398 36.7402 4.91331C37.3071 3.71648 38.567 2.96058 39.8898 2.96058H39.9528C41.3386 2.96058 42.5354 3.65349 43.2283 4.85032C51.6061 19.6532 60.4249 35.0861 68.1728 48.6922C71.0074 53.6685 73.842 58.6448 76.6766 63.6211C77.3065 64.5659 77.4325 65.7628 77.0545 66.7706Z" fill="white"/>
<path d="M41.7165 20.0942H38.378V47.8103H41.7165V20.0942Z" fill="white"/>
<path d="M40.0158 52.7866C39.0709 52.7866 38.189 53.1645 37.5591 53.7944C36.9292 54.4873 36.5512 55.3692 36.5512 56.3141C36.5512 57.1959 36.9292 58.0778 37.5591 58.7077C38.189 59.3376 39.0079 59.6526 39.8898 59.6526C39.9528 59.6526 39.9528 59.6526 40.0158 59.6526C41.9055 59.6526 43.4173 58.0778 43.3543 56.1881C43.3543 55.2432 42.9763 54.4243 42.3464 53.7314C41.7165 53.1015 40.8976 52.7866 40.0158 52.7866Z" fill="white"/>
</svg>
