<svg width="50" height="50" viewBox="0 0 50 50" fill="none" xmlns="http://www.w3.org/2000/svg">
<path d="M19.9469 34.0064L20.9931 35L31 25.4962L29.9538 24.5026L19.9469 34.0064Z" fill="white"/>
<path d="M29.9376 26.4848L30.9838 25.4912L20.9769 15.9874L19.9307 16.981L29.9376 26.4848Z" fill="white"/>
<path fill-rule="evenodd" clip-rule="evenodd" d="M25 2C12.2975 2 2 12.2974 2 25C2 37.7025 12.2975 48 25 48C37.7025 48 48 37.7025 48 25C48 12.2975 37.7026 2 25 2ZM25 -2.18557e-06C11.1929 -3.39263e-06 3.39263e-06 11.1929 2.18557e-06 25C9.78513e-07 38.8071 11.1929 50 25 50C38.8071 50 50 38.8071 50 25C50 11.1929 38.8071 -9.78513e-07 25 -2.18557e-06Z" fill="white"/>
</svg>
