<svg width="87" height="70" viewBox="0 0 87 70" fill="none" xmlns="http://www.w3.org/2000/svg">
<path d="M0.139346 68.2349C0.557386 67.4453 1.20767 67.306 2.04375 67.306C4.18039 67.3524 6.36349 67.306 8.50013 67.306C8.59303 67.306 8.73237 67.306 8.87172 67.2595C8.82527 67.1202 8.77882 67.0273 8.73237 66.9344C8.36078 66.0983 8.17499 65.2622 8.17499 64.3332C8.17499 62.2895 8.17499 60.2922 8.17499 58.2485C8.17499 57.9698 8.08209 57.7375 7.84985 57.5517C6.31704 56.2512 5.48096 54.579 5.48096 52.5817C5.43451 47.4723 5.43451 42.363 5.48096 37.2536C5.48096 34.7454 6.13124 32.3765 7.19956 30.1005C7.24601 29.9611 7.33891 29.8218 7.43181 29.636C7.01377 29.5895 6.64218 29.5895 6.27059 29.5431C4.31974 29.2644 2.87983 27.6851 2.78693 25.6878C2.74048 24.7124 2.74048 23.737 2.78693 22.7616C2.83338 20.5785 4.59843 18.8599 6.78153 18.8134C9.10397 18.767 11.4264 18.8134 13.7488 18.8134C14.1204 18.8134 14.2598 18.7205 14.3062 18.3489C15.1423 15.144 15.9784 11.939 16.8609 8.73403C18.4402 3.62466 23.0851 0.0481064 28.4267 0.0481064C34.3257 0.00165763 40.1782 0.00165763 46.0308 0.00165763C49.7931 0.00165763 53.509 0.00165763 57.2714 0.00165763C60.4299 -0.0447912 63.2168 0.884185 65.6322 2.88148C67.6759 4.60009 68.9765 6.82963 69.6268 9.43076C70.4164 12.4035 71.206 15.4227 71.9956 18.3954C72.0885 18.7205 72.2279 18.8599 72.553 18.8599C74.7826 18.8599 77.0586 18.8599 79.2881 18.8599C81.7963 18.8599 83.5614 20.5785 83.5149 23.0867C83.5149 24.1086 83.5614 25.1305 83.4685 26.1523C83.2363 28.1496 81.5641 29.5895 79.5203 29.636C79.3346 29.636 79.1488 29.636 78.8701 29.636C78.963 29.8218 78.963 29.9611 79.0559 30.054C80.2635 32.5623 80.8209 35.2098 80.8209 37.9503C80.8209 42.6417 80.8209 47.333 80.8209 52.0243C80.8209 54.3003 80.0777 56.2047 78.3127 57.6911C78.1733 57.8304 78.1269 58.0627 78.1269 58.2949C78.1269 60.0135 78.1269 61.6857 78.1269 63.4043C78.1269 64.7048 78.1269 66.0054 77.3837 67.2595C77.5695 67.306 77.6624 67.306 77.8017 67.306C79.9384 67.306 82.1215 67.3524 84.2581 67.306C85.0942 67.306 85.7445 67.4453 86.1625 68.2349C86.1625 68.4672 86.1625 68.7459 86.1625 68.9781C85.8374 69.7213 85.28 70 84.4439 70C75.1542 70 65.9109 70 56.6211 70C48.0281 70 39.3886 70 30.7956 70C21.0878 70 11.38 70 1.71861 70C0.882527 70 0.325142 69.7213 0 68.9781C0.139346 68.7459 0.139346 68.4672 0.139346 68.2349ZM8.22144 45.8002C8.22144 46.0324 8.22144 46.2182 8.22144 46.3576C8.22144 48.3549 8.22144 50.3057 8.22144 52.303C8.22144 54.8577 9.94004 56.5763 12.4947 56.5763C16.5822 56.5763 20.6233 56.5763 24.7108 56.5763C41.1072 56.5763 57.5501 56.5763 73.9465 56.5763C76.5012 56.5763 78.2198 54.8577 78.2198 52.3495C78.2198 50.3522 78.2198 48.4013 78.2198 46.404C78.2198 46.2182 78.2198 46.0789 78.2198 45.8466C77.9875 45.8466 77.8018 45.8466 77.616 45.8466C74.3181 45.8466 70.9738 45.8466 67.6759 45.8466C66.7005 45.8466 65.6786 45.8466 64.7032 45.8466C63.3562 45.8002 62.2878 44.8247 62.102 43.5242C61.684 40.3657 63.6349 37.7181 66.7469 37.1607C68.8836 36.7891 71.0667 36.464 73.2033 36.0924C74.7826 35.8137 76.3618 35.5814 77.9411 35.3027C77.9411 35.2099 77.9411 35.117 77.9411 35.0241C77.4302 32.1442 76.0367 29.7289 74.2252 27.5458C74.1787 27.4529 73.9465 27.4529 73.8536 27.4993C73.3427 27.7316 72.8317 27.9638 72.3672 28.2425C70.3699 29.3573 68.2333 29.8218 65.9573 29.7289C64.1922 29.6824 62.3807 29.7289 60.6157 29.7289C47.0062 29.7289 33.3967 29.7289 19.7872 29.7289C19.1834 29.7289 18.5331 29.6824 17.9292 29.5895C16.3035 29.4037 14.9565 28.5677 13.5166 27.9174C13.145 27.7316 12.7734 27.5458 12.4018 27.36C10.4045 29.7289 8.91817 32.2836 8.45368 35.3492C8.54658 35.3956 8.59303 35.3956 8.63948 35.3956C12.2625 35.9995 15.8855 36.6033 19.5549 37.2071C22.667 37.7181 24.3856 39.8083 24.3856 42.9203C24.3856 44.7783 23.2708 45.8931 21.4129 45.8931C17.1861 45.8931 13.0057 45.8931 8.77882 45.8931C8.59303 45.8002 8.40723 45.8002 8.22144 45.8002ZM14.0275 25.0376C14.7243 25.3627 15.3746 25.6878 16.0713 26.0594C17.2325 26.7097 18.5331 26.942 19.8336 26.942C29.7272 26.942 39.6208 26.942 49.5144 26.942C49.886 26.942 50.0718 26.8955 50.1647 26.431C50.9543 22.808 54.2986 20.1604 58.061 20.2069C61.8234 20.2069 65.1212 22.8545 65.8644 26.5239C65.9573 26.8491 66.0502 26.942 66.3753 26.942C68.6049 27.1278 70.4628 26.0594 72.4137 25.084C72.2279 24.8518 72.0885 24.666 71.9492 24.4802C70.788 22.9938 69.9983 21.3681 69.5339 19.5566C68.6978 16.3516 67.8153 13.1002 66.9792 9.89525C65.818 5.57551 62.3343 2.78859 57.8752 2.74214C53.1374 2.69569 48.3997 2.74214 43.6619 2.74214C38.6454 2.74214 33.6289 2.69569 28.6125 2.74214C24.1534 2.78859 20.6233 5.57551 19.462 9.80235C18.7189 12.5893 18.0221 15.3298 17.279 18.1167C16.8145 19.8353 16.4429 21.5539 15.421 23.0867C15.003 23.737 14.5385 24.3873 14.0275 25.0376ZM64.7496 59.2703C50.3505 59.2703 36.0443 59.2703 21.6916 59.2703C21.6916 60.7102 21.6451 62.1502 21.6916 63.5436C21.738 64.7977 21.6451 66.0519 21.0413 67.1666C21.0413 67.1666 21.0413 67.2131 21.0878 67.2595C35.8585 67.2595 50.6292 67.2595 65.4928 67.2595C64.7961 66.0983 64.7496 64.9371 64.7496 63.683C64.7496 62.2431 64.7496 60.8031 64.7496 59.2703ZM67.4437 59.2703C67.4437 61.1747 67.3972 62.9862 67.4437 64.8442C67.4901 66.2841 68.6049 67.2595 70.0448 67.306C70.8809 67.3524 71.7169 67.306 72.553 67.306C74.411 67.306 75.4793 66.1912 75.4793 64.3332C75.4793 62.8004 75.4793 61.2676 75.4793 59.7348C75.4793 59.549 75.4793 59.4097 75.4329 59.2239C72.7853 59.2703 70.1377 59.2703 67.4437 59.2703ZM18.9976 59.2703C16.2571 59.2703 13.6095 59.2703 10.9619 59.2703C10.9619 61.2212 10.9155 63.1256 10.9619 64.9835C11.0084 66.3305 12.216 67.2595 13.6095 67.306C14.492 67.306 15.3746 67.306 16.2571 67.306C17.8363 67.2595 18.9047 66.1912 18.9511 64.6119C18.9511 63.9152 18.9511 63.2185 18.9511 62.5217C18.9976 61.4534 18.9976 60.3851 18.9976 59.2703ZM8.22144 43.0597C12.727 43.0597 17.1861 43.0597 21.6451 43.0597C21.8309 41.2482 20.9484 40.087 19.1834 39.8083C16.3964 39.3438 13.6095 38.8793 10.8226 38.4148C9.94004 38.2755 9.10396 38.1361 8.22144 37.9968C8.22144 39.6689 8.22144 41.3411 8.22144 43.0597ZM78.1733 43.0597C78.1733 41.3411 78.1733 39.6689 78.1733 37.9968C78.034 37.9968 77.9411 37.9968 77.8482 37.9968C75.7116 38.3684 73.6214 38.6935 71.4847 39.0651C69.9519 39.3438 68.4191 39.5296 66.8863 39.8547C65.3535 40.1799 64.4709 41.6198 64.8425 43.0597C69.2552 43.0597 73.7142 43.0597 78.1733 43.0597ZM52.9052 26.8955C56.3424 26.8955 59.7332 26.8955 63.1704 26.8955C62.8452 24.7124 60.4299 22.8545 57.9681 22.9009C55.5528 22.9474 53.1374 24.8053 52.9052 26.8955ZM73.2962 21.6004C73.3891 21.7397 73.3891 21.8326 73.482 21.9255C74.6897 23.5512 75.8509 25.1769 77.0586 26.7562C77.1515 26.8491 77.3373 26.942 77.5231 26.942C78.1269 26.942 78.7772 26.942 79.381 26.942C80.3564 26.942 80.9138 26.3846 80.9138 25.4556C80.9138 24.7124 80.9138 23.9692 80.9138 23.2261C80.9138 22.1113 80.4029 21.6004 79.2881 21.6004C77.4766 21.6004 75.6651 21.6004 73.8536 21.6004C73.6678 21.5539 73.482 21.5539 73.2962 21.6004ZM13.1915 21.5539C10.9619 21.5539 8.87172 21.5539 6.78153 21.5539C6.03834 21.5539 5.52741 22.1577 5.48096 22.9474C5.48096 23.7834 5.48096 24.666 5.48096 25.5485C5.48096 26.3846 6.03834 26.8955 6.87442 26.942C7.52471 26.942 8.17499 26.9884 8.82527 26.942C9.01107 26.942 9.28976 26.8026 9.38266 26.6168C10.4045 25.3163 11.38 23.9692 12.3554 22.6687C12.6805 22.3435 12.9128 21.9719 13.1915 21.5539Z" fill="#161616"/>
<path d="M43.2903 48.4941C49.7931 48.4941 56.2959 48.4941 62.7988 48.4941C63.0775 48.4941 63.3562 48.4941 63.6349 48.4941C64.4245 48.5406 64.9819 49.098 64.9819 49.8412C64.9819 50.5843 64.4245 51.1882 63.6349 51.1882C62.8452 51.2346 62.0556 51.1882 61.266 51.1882C51.6975 51.1882 42.1291 51.1882 32.5606 51.1882C29.4021 51.1882 26.2436 51.1882 23.0851 51.1882C21.9238 51.1882 21.2271 50.1198 21.738 49.1909C22.0167 48.7264 22.4348 48.4941 22.9457 48.4941C24.8037 48.4941 26.6616 48.4941 28.5196 48.4941C33.4896 48.4941 38.3667 48.4941 43.2903 48.4941Z" fill="#161616"/>
<path d="M71.4847 48.4943C72.4137 48.4943 73.3427 48.4943 74.2716 48.4943C75.1542 48.4943 75.758 49.0517 75.758 49.8413C75.758 50.6309 75.1542 51.1883 74.2716 51.1883C72.4601 51.1883 70.6486 51.1883 68.8371 51.1883C67.9546 51.1883 67.3508 50.6309 67.3508 49.8413C67.3508 49.0517 67.9546 48.5407 68.7907 48.4943C69.6732 48.4478 70.5557 48.4943 71.4847 48.4943Z" fill="#161616"/>
<path d="M15.003 48.4943C15.9319 48.4943 16.8145 48.4943 17.7434 48.4943C18.626 48.4943 19.2298 49.0517 19.1834 49.8413C19.1834 50.6309 18.5795 51.1883 17.7434 51.1883C15.9319 51.1883 14.074 51.1883 12.2625 51.1883C11.38 51.1883 10.7761 50.5845 10.7761 49.8413C10.7761 49.0981 11.38 48.5407 12.216 48.4943C13.145 48.4478 14.074 48.4943 15.003 48.4943Z" fill="#161616"/>
<path d="M44.5444 43.1526C44.5444 43.6171 44.5444 44.0351 44.5444 44.4996C44.498 45.2428 43.9406 45.8002 43.2438 45.8002C42.5007 45.8002 41.8968 45.2428 41.8968 44.4996C41.8968 43.5706 41.8968 42.6881 41.8968 41.7591C41.8968 40.9695 42.5007 40.4121 43.1974 40.4121C43.9406 40.4121 44.5444 40.9695 44.5444 41.7591C44.5444 42.2236 44.5444 42.6881 44.5444 43.1526Z" fill="#161616"/>
<path d="M55.3205 43.0598C55.3205 42.5953 55.3205 42.1772 55.3205 41.7127C55.3205 40.9696 55.9244 40.3657 56.6675 40.3657C57.4107 40.3657 58.0146 40.9231 58.0146 41.6663C58.061 42.5953 58.061 43.4778 58.0146 44.4068C58.0146 45.1964 57.3643 45.7538 56.6211 45.7538C55.8779 45.7538 55.3205 45.1499 55.3205 44.4068C55.3205 43.9887 55.3205 43.5242 55.3205 43.0598Z" fill="#161616"/>
<path d="M31.0743 43.1061C31.0743 43.5706 31.0743 43.9887 31.0743 44.4532C31.0278 45.2428 30.4704 45.8002 29.7272 45.8002C28.9841 45.8002 28.3802 45.2428 28.3802 44.4996C28.3338 43.5706 28.3338 42.6417 28.3802 41.7127C28.4267 40.9695 29.0305 40.4121 29.7737 40.4121C30.4704 40.4121 31.0278 40.9695 31.0743 41.7127C31.1207 42.1772 31.0743 42.6417 31.0743 43.1061Z" fill="#161616"/>
<path d="M51.2795 43.0598C51.2795 43.5242 51.2795 43.9887 51.2795 44.4532C51.233 45.2428 50.6756 45.8002 49.9325 45.8002C49.2357 45.8002 48.6319 45.2893 48.5855 44.4997C48.539 43.5707 48.539 42.6417 48.5855 41.6663C48.6319 40.8767 49.2357 40.3657 49.9789 40.3657C50.7221 40.3657 51.233 40.9696 51.2795 41.7592C51.2795 42.1772 51.2795 42.6417 51.2795 43.0598Z" fill="#161616"/>
<path d="M35.1153 43.0598C35.1153 42.5953 35.1153 42.1772 35.1153 41.7128C35.1153 40.9696 35.6727 40.4122 36.3694 40.3657C37.0661 40.3193 37.7164 40.7838 37.7629 41.527C37.8093 42.5488 37.8093 43.6172 37.7629 44.639C37.7164 45.3358 37.0661 45.8002 36.4159 45.8002C35.6727 45.7538 35.1617 45.2429 35.1153 44.4997C35.1153 44.0352 35.1153 43.5243 35.1153 43.0598Z" fill="#161616"/>
<path d="M43.2903 8.08374C44.2193 8.08374 45.1018 8.08374 46.0308 8.08374C46.9133 8.08374 47.5171 8.64113 47.5171 9.43076C47.5171 10.2204 46.9133 10.7778 46.0308 10.7778C44.2193 10.7778 42.4078 10.7778 40.6427 10.7778C39.7137 10.7778 39.1099 10.2204 39.1099 9.43076C39.1099 8.64113 39.7137 8.08374 40.5963 8.08374C41.4788 8.08374 42.3613 8.08374 43.2903 8.08374Z" fill="#161616"/>
</svg>
