<svg width="72" height="70" viewBox="0 0 72 70" fill="none" xmlns="http://www.w3.org/2000/svg">
<path d="M0.998755 0.822991C1.31902 0.182887 1.86803 0 2.60006 0C17.6523 0 32.7503 0 47.8026 0C49.0379 0 49.4039 0.365774 49.4039 1.55454C49.4039 8.50424 49.4039 15.4539 49.4039 22.4494C49.4039 22.6323 49.4039 22.8609 49.3582 23.0438C49.2667 23.6381 48.8549 23.9582 48.2601 23.9582C47.6654 23.9582 47.2536 23.6381 47.1621 23.0438C47.1163 22.7694 47.1163 22.4951 47.1163 22.2208C47.1163 15.8654 47.1163 9.51012 47.1163 3.10908C47.1163 2.83475 47.1163 2.56042 47.1163 2.28609C32.4758 2.28609 17.9268 2.28609 3.28633 2.28609C3.28633 20.5748 3.28633 38.8635 3.28633 57.2436C3.56084 57.2436 3.7896 57.2436 4.06411 57.2436C6.7177 57.2436 9.41704 57.2436 12.0706 57.2436C13.4432 57.2436 13.7634 57.5637 13.7634 58.9353C13.7634 61.5872 13.7634 64.2848 13.7634 66.9366C13.7634 67.1652 13.7634 67.4396 13.7634 67.7139C24.8811 67.7139 35.953 67.7139 47.0706 67.7139C47.0706 67.4396 47.0706 67.1653 47.0706 66.8909C47.0706 60.5356 47.0706 54.1803 47.0706 47.7792C47.0706 47.5049 47.0706 47.2306 47.1163 46.9562C47.2078 46.3619 47.6196 46.0418 48.2144 46.0418C48.8091 46.0418 49.2209 46.3619 49.3124 46.9562C49.3582 47.1848 49.3582 47.4592 49.3582 47.6878C49.3582 54.546 49.3582 61.4043 49.3582 68.3083C49.3582 69.7257 49.0379 70 47.6196 70C36.136 70 24.6523 70 13.1687 70C12.4824 70 11.9791 69.7714 11.4759 69.3142C8.2275 66.0222 4.93339 62.776 1.63928 59.484C1.36477 59.2097 1.18176 58.9353 0.953003 58.661C0.998755 39.4579 0.998755 20.1176 0.998755 0.822991ZM5.25365 59.5754C7.31247 61.6329 9.4628 63.7818 11.4759 65.7936C11.4759 63.8276 11.4759 61.6786 11.4759 59.5754C9.32554 59.5754 7.17522 59.5754 5.25365 59.5754Z" fill="#161616"/>
<path d="M71.1359 17.2826C71.0901 18.9743 70.4496 20.2546 69.3516 21.3519C64.4562 26.2441 59.5608 31.1363 54.6196 36.0743C49.9072 40.7836 45.149 45.5387 40.4366 50.248C40.2078 50.4766 39.9791 50.7052 39.7046 50.8881C35.8614 53.1285 32.0641 55.4146 28.2209 57.6549C27.0771 58.3408 25.7046 57.7007 25.4758 56.4205C25.3843 56.009 25.4758 55.4603 25.7046 55.1402C27.9464 51.2996 30.1882 47.459 32.4758 43.6641C32.6131 43.4355 32.7961 43.2526 32.9791 43.0697C42.6327 33.3767 52.2863 23.6837 61.9856 13.9907C64.2274 11.7503 67.2013 11.5674 69.3973 13.5335C70.5411 14.5851 71.0901 15.911 71.1359 17.2826ZM56.3124 22.9979C49.2666 30.039 42.2209 37.0802 35.2209 44.0756C36.5477 45.4015 37.9203 46.7732 39.2471 48.0991C46.247 41.1037 53.3385 34.0168 60.3385 27.0214C59.0117 25.6954 57.6849 24.3238 56.3124 22.9979ZM61.2536 17.9227C62.6719 19.3401 63.9987 20.7118 65.3712 22.1291C66.2405 21.2604 67.1555 20.3917 67.979 19.4773C69.1228 18.2428 69.1228 16.4596 68.0248 15.3623C66.9268 14.2193 65.0967 14.1736 63.9072 15.3166C62.9921 16.1396 62.0771 17.0998 61.2536 17.9227ZM33.6196 46.0416C32.7503 47.5047 31.8353 49.0592 31.0118 50.5223C31.6065 51.1624 32.2013 51.7111 32.7961 52.3512C34.3059 51.4825 35.8157 50.5681 37.2797 49.6994C36.0444 48.4649 34.8549 47.2761 33.6196 46.0416ZM58.0967 21.1233C59.4692 22.5406 60.8418 23.8666 62.1228 25.1468C62.5804 24.7353 63.0836 24.2781 63.5411 23.8666C62.1686 22.4949 60.796 21.1233 59.4235 19.7516C59.0117 20.2088 58.5085 20.7118 58.0967 21.1233ZM28.5412 54.6373C28.5869 54.683 28.5869 54.7287 28.6327 54.7287C29.2732 54.363 29.9137 53.9515 30.5085 53.6314C30.234 53.3114 30.0052 52.9913 29.7307 52.6255C29.319 53.3571 28.9529 53.9972 28.5412 54.6373Z" fill="#161616"/>
<path d="M25.2471 10.5618C30.234 10.5618 35.2209 10.5618 40.1621 10.5618C40.3909 10.5618 40.6654 10.5618 40.8941 10.6075C41.4889 10.7447 41.8092 11.1104 41.8092 11.7505C41.8092 12.2992 41.4889 12.665 40.8941 12.8021C40.6196 12.8479 40.3451 12.8479 40.0706 12.8479C30.1425 12.8479 20.2144 12.8479 10.2863 12.8479C10.0118 12.8479 9.7373 12.8479 9.46279 12.8021C8.86802 12.7107 8.54776 12.2992 8.54776 11.7048C8.54776 11.1104 8.91377 10.7447 9.50854 10.6075C9.7373 10.5618 10.0118 10.5618 10.2406 10.5618C15.2732 10.5618 20.2602 10.5618 25.2471 10.5618Z" fill="#161616"/>
<path d="M25.2013 16.5969C30.1882 16.5969 35.1752 16.5969 40.1163 16.5969C40.3908 16.5969 40.6654 16.5969 40.9399 16.6426C41.5346 16.7798 41.8549 17.1456 41.8549 17.7857C41.8549 18.3343 41.5346 18.7001 40.9399 18.8373C40.7111 18.883 40.4366 18.883 40.2078 18.883C30.234 18.883 20.2602 18.883 10.2863 18.883C9.14252 18.883 8.59351 18.5172 8.59351 17.74C8.59351 16.9627 9.14252 16.5969 10.2863 16.5969C15.2275 16.5969 20.2144 16.5969 25.2013 16.5969Z" fill="#161616"/>
<path d="M25.1556 22.6323C30.1425 22.6323 35.1294 22.6323 40.0706 22.6323C40.2994 22.6323 40.5281 22.6323 40.7569 22.6323C41.3517 22.7238 41.7634 23.0438 41.8092 23.7296C41.8549 24.324 41.4432 24.7812 40.7569 24.8727C40.5281 24.9184 40.2994 24.9184 40.0706 24.9184C30.0968 24.9184 20.1687 24.9184 10.1948 24.9184C9.05103 24.9184 8.50201 24.5526 8.50201 23.7754C8.50201 23.0438 9.09679 22.6323 10.1948 22.6323C15.2275 22.6323 20.2144 22.6323 25.1556 22.6323Z" fill="#161616"/>
<path d="M25.2013 28.6216C30.1883 28.6216 35.1752 28.6216 40.1163 28.6216C40.3909 28.6216 40.7111 28.6216 40.9856 28.713C41.5346 28.8502 41.8092 29.2617 41.8092 29.8103C41.8092 30.359 41.4889 30.7248 40.9856 30.8162C40.7111 30.8619 40.4366 30.9077 40.1621 30.9077C30.1883 30.9077 20.2144 30.9077 10.2406 30.9077C9.09678 30.9077 8.54776 30.4962 8.54776 29.7646C8.54776 28.9874 9.14253 28.6216 10.2406 28.6216C15.2275 28.6216 20.2144 28.6216 25.2013 28.6216Z" fill="#161616"/>
<path d="M22.4562 36.9433C18.4301 36.9433 14.404 36.9433 10.3321 36.9433C10.1491 36.9433 9.96606 36.9433 9.78305 36.9433C9.05103 36.8976 8.54776 36.4404 8.54776 35.8003C8.54776 35.2059 9.05103 34.7029 9.78305 34.6572C9.96606 34.6572 10.1491 34.6572 10.3321 34.6572C18.4758 34.6572 26.6196 34.6572 34.7634 34.6572C35.9529 34.6572 36.502 35.023 36.502 35.846C36.502 36.5775 35.9072 36.9433 34.7634 36.9433C30.6458 36.9433 26.5281 36.9433 22.4562 36.9433Z" fill="#161616"/>
<path d="M17.4236 42.9785C14.9987 42.9785 12.5739 42.9785 10.1491 42.9785C9.87456 42.9785 9.46279 43.0242 9.27979 42.8413C8.95952 42.567 8.54776 42.1555 8.54776 41.8354C8.54776 41.4697 8.95952 41.1039 9.27979 40.8295C9.46279 40.6924 9.8288 40.6924 10.1491 40.6924C14.9987 40.6924 19.8026 40.6924 24.6523 40.6924C24.8811 40.6924 25.1098 40.6924 25.3386 40.7381C25.9334 40.8295 26.2536 41.241 26.2536 41.8354C26.2536 42.4298 25.8876 42.7956 25.2928 42.9327C25.0641 42.9785 24.8353 42.9785 24.6066 42.9785C22.2732 42.9785 19.8484 42.9785 17.4236 42.9785Z" fill="#161616"/>
<path d="M35.8615 61.0841C34.3059 61.0841 32.7504 61.0841 31.1948 61.0841C30.417 61.0841 29.9138 60.6269 29.9138 59.9868C29.9138 59.3467 30.3713 58.8895 31.1948 58.8438C31.3778 58.8438 31.5608 58.8438 31.7438 58.8438C34.3974 58.8438 37.0968 58.8438 39.7503 58.8438C39.9791 58.8438 40.2536 58.8438 40.4824 58.8438C41.3516 58.8895 41.8549 59.301 41.8549 59.9868C41.8549 60.7183 41.3516 61.1298 40.4824 61.1298C38.9268 61.0841 37.3713 61.0841 35.8615 61.0841Z" fill="#161616"/>
</svg>
