<svg width="71" height="70" viewBox="0 0 71 70" fill="none" xmlns="http://www.w3.org/2000/svg">
<path d="M0.0457516 0.822991C0.366013 0.182887 0.915031 0 1.64706 0C16.6993 0 31.7973 0 46.8496 0C48.0849 0 48.4509 0.365774 48.4509 1.55454C48.4509 8.50424 48.4509 15.4539 48.4509 22.4494C48.4509 22.6323 48.4509 22.8609 48.4052 23.0438C48.3137 23.6381 47.9019 23.9582 47.3071 23.9582C46.7124 23.9582 46.3006 23.6381 46.2091 23.0438C46.1633 22.7694 46.1633 22.4951 46.1633 22.2208C46.1633 15.8654 46.1633 9.51012 46.1633 3.10908C46.1633 2.83475 46.1633 2.56042 46.1633 2.28609C31.5228 2.28609 16.9738 2.28609 2.33333 2.28609C2.33333 20.5748 2.33333 38.8635 2.33333 57.2436C2.60784 57.2436 2.8366 57.2436 3.11111 57.2436C5.7647 57.2436 8.46404 57.2436 11.1176 57.2436C12.4902 57.2436 12.8104 57.5637 12.8104 58.9353C12.8104 61.5872 12.8104 64.2848 12.8104 66.9366C12.8104 67.1652 12.8104 67.4396 12.8104 67.7139C23.9281 67.7139 35 67.7139 46.1176 67.7139C46.1176 67.4396 46.1176 67.1653 46.1176 66.8909C46.1176 60.5356 46.1176 54.1803 46.1176 47.7792C46.1176 47.5049 46.1176 47.2306 46.1633 46.9562C46.2548 46.3619 46.6666 46.0418 47.2614 46.0418C47.8561 46.0418 48.2679 46.3619 48.3594 46.9562C48.4052 47.1848 48.4052 47.4592 48.4052 47.6878C48.4052 54.546 48.4052 61.4043 48.4052 68.3083C48.4052 69.7257 48.0849 70 46.6666 70C35.183 70 23.6993 70 12.2157 70C11.5294 70 11.0261 69.7714 10.5229 69.3142C7.2745 66.0222 3.98039 62.776 0.686274 59.484C0.411764 59.2097 0.228758 58.9353 0 58.661C0.0457516 39.4579 0.0457516 20.1176 0.0457516 0.822991ZM4.30065 59.5754C6.35947 61.6329 8.50979 63.7818 10.5229 65.7936C10.5229 63.8276 10.5229 61.6786 10.5229 59.5754C8.37254 59.5754 6.22221 59.5754 4.30065 59.5754Z" fill="#161616"/>
<path d="M70.1829 17.2828C70.1372 18.9745 69.4967 20.2547 68.3986 21.352C63.5032 26.2442 58.6078 31.1364 53.6666 36.0744C48.9542 40.7837 44.196 45.5388 39.4836 50.2481C39.2549 50.4767 39.0261 50.7054 38.7516 50.8882C34.9085 53.1286 31.1111 55.4147 27.268 57.6551C26.1242 58.3409 24.7516 57.7008 24.5229 56.4206C24.4314 56.0091 24.5229 55.4604 24.7516 55.1404C26.9934 51.2997 29.2353 47.4591 31.5228 43.6642C31.6601 43.4356 31.8431 43.2527 32.0261 43.0698C41.6797 33.3768 51.3333 23.6838 61.0326 13.9908C63.2744 11.7504 66.2483 11.5675 68.4444 13.5336C69.5882 14.5852 70.1372 15.9111 70.1829 17.2828ZM55.3594 22.998C48.3137 30.0391 41.2679 37.0803 34.2679 44.0757C35.5947 45.4016 36.9673 46.7733 38.2941 48.0992C45.2941 41.1038 52.3856 34.0169 59.3856 27.0215C58.0588 25.6956 56.732 24.3239 55.3594 22.998ZM60.3006 17.9229C61.7189 19.3402 63.0457 20.7119 64.4182 22.1293C65.2875 21.2606 66.2025 20.3918 67.0261 19.4774C68.1699 18.2429 68.1699 16.4598 67.0718 15.3624C65.9738 14.2194 64.1437 14.1737 62.9542 15.3167C62.0391 16.1397 61.1241 17.0999 60.3006 17.9229ZM32.6666 46.0417C31.7974 47.5048 30.8823 49.0594 30.0588 50.5225C30.6536 51.1626 31.2483 51.7112 31.8431 52.3513C33.3529 51.4826 34.8627 50.5682 36.3268 49.6995C35.0915 48.465 33.9019 47.2762 32.6666 46.0417ZM57.1437 21.1234C58.5163 22.5408 59.8888 23.8667 61.1699 25.1469C61.6274 24.7354 62.1306 24.2782 62.5882 23.8667C61.2156 22.495 59.8431 21.1234 58.4705 19.7517C58.0588 20.209 57.5555 20.7119 57.1437 21.1234ZM27.5882 54.6374C27.634 54.6831 27.634 54.7289 27.6797 54.7289C28.3202 54.3631 28.9608 53.9516 29.5555 53.6315C29.281 53.3115 29.0523 52.9914 28.7778 52.6257C28.366 53.3572 28 53.9973 27.5882 54.6374Z" fill="#161616"/>
<path d="M24.2941 10.5618C29.281 10.5618 34.2679 10.5618 39.2091 10.5618C39.4378 10.5618 39.7123 10.5618 39.9411 10.6075C40.5359 10.7447 40.8561 11.1104 40.8561 11.7505C40.8561 12.2992 40.5359 12.665 39.9411 12.8021C39.6666 12.8479 39.3921 12.8479 39.1176 12.8479C29.1895 12.8479 19.2614 12.8479 9.33329 12.8479C9.05878 12.8479 8.78427 12.8479 8.50976 12.8021C7.91499 12.7107 7.59473 12.2992 7.59473 11.7048C7.59473 11.1104 7.96074 10.7447 8.55551 10.6075C8.78427 10.5618 9.05878 10.5618 9.28754 10.5618C14.3202 10.5618 19.3071 10.5618 24.2941 10.5618Z" fill="#161616"/>
<path d="M24.2483 16.597C29.2352 16.597 34.2222 16.597 39.1633 16.597C39.4378 16.597 39.7124 16.597 39.9869 16.6428C40.5816 16.7799 40.9019 17.1457 40.9019 17.7858C40.9019 18.3345 40.5816 18.7002 39.9869 18.8374C39.7581 18.8831 39.4836 18.8831 39.2548 18.8831C29.281 18.8831 19.3072 18.8831 9.33331 18.8831C8.18952 18.8831 7.6405 18.5174 7.6405 17.7401C7.6405 16.9628 8.18952 16.597 9.33331 16.597C14.2745 16.597 19.2614 16.597 24.2483 16.597Z" fill="#161616"/>
<path d="M24.2025 22.6323C29.1894 22.6323 34.1764 22.6323 39.1175 22.6323C39.3463 22.6323 39.5751 22.6323 39.8038 22.6323C40.3986 22.7238 40.8103 23.0438 40.8561 23.7296C40.9019 24.324 40.4901 24.7812 39.8038 24.8727C39.5751 24.9184 39.3463 24.9184 39.1175 24.9184C29.1437 24.9184 19.2156 24.9184 9.24176 24.9184C8.09797 24.9184 7.54895 24.5526 7.54895 23.7754C7.54895 23.0438 8.14372 22.6323 9.24176 22.6323C14.2744 22.6323 19.2614 22.6323 24.2025 22.6323Z" fill="#161616"/>
<path d="M24.2483 28.6217C29.2352 28.6217 34.2221 28.6217 39.1633 28.6217C39.4378 28.6217 39.7581 28.6217 40.0326 28.7131C40.5816 28.8503 40.8561 29.2618 40.8561 29.8105C40.8561 30.3591 40.5359 30.7249 40.0326 30.8163C39.7581 30.8621 39.4836 30.9078 39.2091 30.9078C29.2352 30.9078 19.2614 30.9078 9.28754 30.9078C8.14375 30.9078 7.59473 30.4963 7.59473 29.7647C7.59473 28.9875 8.1895 28.6217 9.28754 28.6217C14.2745 28.6217 19.2614 28.6217 24.2483 28.6217Z" fill="#161616"/>
<path d="M21.5032 36.9432C17.4771 36.9432 13.4509 36.9432 9.37904 36.9432C9.19603 36.9432 9.01303 36.9432 8.83002 36.9432C8.09799 36.8975 7.59473 36.4403 7.59473 35.8001C7.59473 35.2058 8.09799 34.7028 8.83002 34.6571C9.01303 34.6571 9.19603 34.6571 9.37904 34.6571C17.5228 34.6571 25.6666 34.6571 33.8104 34.6571C34.9999 34.6571 35.5489 35.0229 35.5489 35.8459C35.5489 36.5774 34.9542 36.9432 33.8104 36.9432C29.6927 36.9432 25.5751 36.9432 21.5032 36.9432Z" fill="#161616"/>
<path d="M16.4705 42.9785C14.0457 42.9785 11.6209 42.9785 9.19603 42.9785C8.92152 42.9785 8.50976 43.0242 8.32675 42.8413C8.00649 42.567 7.59473 42.1555 7.59473 41.8354C7.59473 41.4697 8.00649 41.1039 8.32675 40.8295C8.50976 40.6924 8.87577 40.6924 9.19603 40.6924C14.0457 40.6924 18.8496 40.6924 23.6993 40.6924C23.928 40.6924 24.1568 40.6924 24.3856 40.7381C24.9803 40.8295 25.3006 41.241 25.3006 41.8354C25.3006 42.4298 24.9346 42.7956 24.3398 42.9327C24.111 42.9785 23.8823 42.9785 23.6535 42.9785C21.3202 42.9785 18.8954 42.9785 16.4705 42.9785Z" fill="#161616"/>
<path d="M34.9084 61.0842C33.3528 61.0842 31.7973 61.0842 30.2417 61.0842C29.464 61.0842 28.9607 60.627 28.9607 59.9869C28.9607 59.3468 29.4182 58.8896 30.2417 58.8439C30.4247 58.8439 30.6077 58.8439 30.7908 58.8439C33.4443 58.8439 36.1437 58.8439 38.7973 58.8439C39.026 58.8439 39.3005 58.8439 39.5293 58.8439C40.3986 58.8896 40.9019 59.3011 40.9019 59.9869C40.9019 60.7185 40.3986 61.13 39.5293 61.13C37.9738 61.0842 36.4182 61.0842 34.9084 61.0842Z" fill="#161616"/>
</svg>
