<svg width="64" height="70" viewBox="0 0 64 70" fill="none" xmlns="http://www.w3.org/2000/svg">
<path d="M24.2009 11.3699C29.2694 11.3699 34.3379 11.3699 39.4064 11.3699C40.1826 11.3699 40.5479 11.7352 40.5479 12.4658C40.5479 13.0594 40.2283 13.4703 39.726 13.516C39.2694 13.5617 38.8128 13.516 38.3562 13.516C28.7215 13.516 19.0868 13.516 9.49772 13.516C9.36073 13.516 9.17808 13.516 9.0411 13.516C8.35616 13.516 8.03653 13.105 8.03653 12.4201C8.03653 11.7352 8.35616 11.4155 9.0411 11.4155C12.5571 11.4155 16.0731 11.4155 19.589 11.4155C21.0959 11.3699 22.6484 11.3699 24.2009 11.3699Z" fill="#161616"/>
<path d="M24.2009 31.6437C19.1781 31.6437 14.1096 31.6437 9.08676 31.6437C8.35617 31.6437 7.94521 31.2327 7.99087 30.5022C8.03653 29.9542 8.26484 29.5889 8.72146 29.5432C8.90411 29.4976 9.08676 29.5432 9.31507 29.5432C19.2694 29.5432 29.2694 29.5432 39.2237 29.5432C39.4064 29.5432 39.589 29.5432 39.726 29.5432C40.2283 29.5889 40.5479 29.9999 40.5479 30.5935C40.5479 31.1871 40.2283 31.598 39.726 31.6437C39.589 31.6437 39.4064 31.6437 39.2694 31.6437C34.2466 31.6437 29.2237 31.6437 24.2009 31.6437Z" fill="#161616"/>
<path d="M20.3653 40.685C16.5297 40.685 12.6484 40.685 8.81277 40.685C8.26483 40.685 7.94519 40.274 7.99086 39.5434C7.99086 38.9955 8.17351 38.6302 8.5388 38.5845C8.67579 38.5388 8.81277 38.5845 8.99542 38.5845C16.621 38.5845 24.2466 38.5845 31.8265 38.5845C31.9635 38.5845 32.1004 38.5845 32.2374 38.5845C32.6027 38.6302 32.8767 39.0411 32.8767 39.6347C32.8767 40.2283 32.6484 40.6393 32.2831 40.685C32.1461 40.685 32.0548 40.685 31.9178 40.685C28.0365 40.685 24.2009 40.685 20.3653 40.685Z" fill="#161616"/>
<path d="M16.9406 49.4519C14.1553 49.4519 11.3699 49.4519 8.58448 49.4519C8.17352 49.4519 7.94521 49.1323 7.99087 48.63C7.99087 48.219 8.12786 47.9451 8.40183 47.8994C8.49315 47.8994 8.63014 47.8994 8.72146 47.8994C14.2466 47.8994 19.7717 47.8994 25.2968 47.8994C25.3881 47.8994 25.4795 47.8994 25.5708 47.8994C25.8447 47.9451 26.0274 48.219 26.0274 48.6757C26.0274 49.1323 25.8447 49.4063 25.5708 49.4519C25.4795 49.4519 25.3881 49.4519 25.2968 49.4519C22.5114 49.4519 19.726 49.4519 16.9406 49.4519Z" fill="#161616"/>
<path d="M24.2009 22.557C19.1781 22.557 14.1096 22.557 9.08676 22.557C8.35617 22.557 7.94521 22.1461 7.99087 21.4155C8.03653 20.8675 8.26484 20.5022 8.72146 20.4566C8.90411 20.4109 9.08676 20.4566 9.31507 20.4566C19.2694 20.4566 29.2694 20.4566 39.2237 20.4566C39.4064 20.4566 39.589 20.4566 39.726 20.4566C40.2283 20.5022 40.5479 20.9132 40.5479 21.5068C40.5479 22.1004 40.2283 22.5114 39.726 22.557C39.589 22.557 39.4064 22.557 39.2694 22.557C34.2466 22.557 29.2237 22.557 24.2009 22.557Z" fill="#161616"/>
<path d="M47.6712 69.4977C45.1142 69.4977 42.6941 68.8584 40.5936 67.7169H12.7854C12.7854 67.3973 12.7854 67.169 12.7854 66.9406C12.7854 64.2922 12.7854 61.5982 12.7854 58.9498C12.7854 57.9909 12.0091 57.2603 11.0959 57.2603C8.44749 57.2603 5.75342 57.2603 3.10502 57.2603C2.83105 57.2603 2.55708 57.2603 2.32877 57.2603V2.32877H46.0731C46.0731 2.6484 46.0731 2.92237 46.0731 3.15068C46.0731 9.49772 46.0731 27.4886 46.0731 33.8813C46.0731 34.4749 45.9817 35.1142 46.7123 35.5708C47.6256 35.7534 48.1735 35.4338 48.3105 34.7032C48.3562 34.5205 48.3562 34.2922 48.3562 34.1096C48.3562 27.1689 48.3562 8.58447 48.3562 1.59817C48.3562 0.365297 47.9909 0.0456621 46.758 0.0456621C31.6438 0 16.621 0 1.59817 0C0.86758 0 0.319635 0.182648 0 0.821918V58.6758C0.22831 58.9498 0.456621 59.2694 0.684932 59.4977C3.9726 62.7854 7.21461 66.0274 10.5023 69.3151C11.0046 69.8174 11.5068 70 12.1918 70C23.653 70 35.1142 70 46.5753 70C47.4429 70 47.8995 69.863 48.1279 69.4521C47.9452 69.4977 47.8082 69.4977 47.6712 69.4977ZM10.4566 65.7534C8.44749 63.7443 6.30137 61.5982 4.24658 59.5434C6.16438 59.5434 8.3105 59.5434 10.4566 59.5434C10.4566 61.6438 10.4566 63.79 10.4566 65.7534Z" fill="#161616"/>
<path d="M47.6712 69.8631C38.8584 69.8631 31.6895 62.6942 31.6895 53.8814C31.6895 45.0686 38.8584 37.8997 47.6712 37.8997C56.484 37.8997 63.653 45.0686 63.653 53.8814C63.653 62.6942 56.484 69.8631 47.6712 69.8631ZM47.6712 40.1828C40.137 40.1828 33.9726 46.3471 33.9726 53.8814C33.9726 61.4156 40.137 67.58 47.6712 67.58C55.2055 67.58 61.3698 61.4156 61.3698 53.8814C61.3698 46.3471 55.2055 40.1828 47.6712 40.1828Z" fill="#161616"/>
<path d="M45.0228 58.2647C45.1598 58.0364 45.2512 57.8081 45.4338 57.6254C48.6758 54.3378 51.9635 51.0957 55.2055 47.8081C55.3881 47.6254 55.5251 47.4428 55.7078 47.3515C56.2101 46.9862 56.6667 47.0318 57.0776 47.4428C57.4886 47.8537 57.5343 48.356 57.169 48.8583C57.032 49.041 56.895 49.1779 56.758 49.3149C53.1507 52.9222 49.5434 56.5295 45.9361 60.1368C45.0228 61.0501 44.6575 61.0501 43.7443 60.1368C42.3288 58.7213 40.9589 57.3515 39.5434 55.9359C38.9954 55.388 38.9498 54.8857 39.3607 54.3834C39.8174 53.8355 40.4566 53.8355 41.0502 54.4291C42.1461 55.4793 43.1964 56.5752 44.2466 57.6254C44.4292 57.8081 44.5662 58.0364 44.7032 58.2647C44.8402 58.2647 44.9315 58.2647 45.0228 58.2647Z" fill="#161616"/>
</svg>
