<svg width="64" height="70" viewBox="0 0 64 70" fill="none" xmlns="http://www.w3.org/2000/svg">
<path d="M24.2009 11.3699C29.2694 11.3699 34.3379 11.3699 39.4064 11.3699C40.1826 11.3699 40.5479 11.7352 40.5479 12.4658C40.5479 13.0594 40.2283 13.4703 39.726 13.516C39.2694 13.5617 38.8128 13.516 38.3561 13.516C28.7214 13.516 19.0867 13.516 9.49769 13.516C9.3607 13.516 9.17805 13.516 9.04106 13.516C8.35613 13.516 8.0365 13.105 8.0365 12.4201C8.0365 11.7352 8.35613 11.4155 9.04106 11.4155C12.557 11.4155 16.073 11.4155 19.589 11.4155C21.0959 11.3699 22.6484 11.3699 24.2009 11.3699Z" fill="#161616"/>
<path d="M24.2009 31.6438C19.1781 31.6438 14.1096 31.6438 9.08676 31.6438C8.35617 31.6438 7.94521 31.2329 7.99087 30.5023C8.03653 29.9543 8.26484 29.589 8.72146 29.5434C8.90411 29.4977 9.08676 29.5434 9.31507 29.5434C19.2694 29.5434 29.2694 29.5434 39.2237 29.5434C39.4064 29.5434 39.589 29.5434 39.726 29.5434C40.2283 29.589 40.5479 30 40.5479 30.5936C40.5479 31.1872 40.2283 31.5982 39.726 31.6438C39.589 31.6438 39.4064 31.6438 39.2694 31.6438C34.2466 31.6438 29.2237 31.6438 24.2009 31.6438Z" fill="#161616"/>
<path d="M20.3653 40.685C16.5297 40.685 12.6484 40.685 8.8128 40.685C8.26486 40.685 7.94523 40.274 7.99089 39.5434C7.99089 38.9955 8.17354 38.6302 8.53883 38.5845C8.67582 38.5388 8.81281 38.5845 8.99545 38.5845C16.621 38.5845 24.2466 38.5845 31.8265 38.5845C31.9635 38.5845 32.1005 38.5845 32.2375 38.5845C32.6028 38.6302 32.8767 39.0411 32.8767 39.6347C32.8767 40.2283 32.6484 40.6393 32.2831 40.685C32.1461 40.685 32.0548 40.685 31.9178 40.685C28.0366 40.685 24.2009 40.685 20.3653 40.685Z" fill="#161616"/>
<path d="M16.9406 49.452C14.1553 49.452 11.3699 49.452 8.58448 49.452C8.17352 49.452 7.94521 49.1324 7.99087 48.6301C7.99087 48.2192 8.12786 47.9452 8.40183 47.8995C8.49315 47.8995 8.63014 47.8995 8.72146 47.8995C14.2466 47.8995 19.7717 47.8995 25.2968 47.8995C25.3881 47.8995 25.4795 47.8995 25.5708 47.8995C25.8447 47.9452 26.0274 48.2192 26.0274 48.6758C26.0274 49.1324 25.8447 49.4064 25.5708 49.452C25.4795 49.452 25.3881 49.452 25.2968 49.452C22.5114 49.452 19.726 49.452 16.9406 49.452Z" fill="#161616"/>
<path d="M24.2009 22.5572C19.1781 22.5572 14.1096 22.5572 9.08676 22.5572C8.35617 22.5572 7.94521 22.1462 7.99087 21.4156C8.03653 20.8677 8.26484 20.5024 8.72146 20.4567C8.90411 20.411 9.08676 20.4567 9.31507 20.4567C19.2694 20.4567 29.2694 20.4567 39.2237 20.4567C39.4064 20.4567 39.589 20.4567 39.726 20.4567C40.2283 20.5024 40.5479 20.9133 40.5479 21.5069C40.5479 22.1005 40.2283 22.5115 39.726 22.5572C39.589 22.5572 39.4064 22.5572 39.2694 22.5572C34.2466 22.5572 29.2237 22.5572 24.2009 22.5572Z" fill="#161616"/>
<path d="M47.6712 69.4977C45.1142 69.4977 42.6941 68.8584 40.5936 67.7169H12.7854C12.7854 67.3973 12.7854 67.169 12.7854 66.9406C12.7854 64.2922 12.7854 61.5982 12.7854 58.9498C12.7854 57.9909 12.0091 57.2603 11.0959 57.2603C8.44749 57.2603 5.75342 57.2603 3.10502 57.2603C2.83105 57.2603 2.55708 57.2603 2.32877 57.2603V2.32877H46.0731C46.0731 2.6484 46.0731 2.92237 46.0731 3.15068C46.0731 9.49772 46.0731 27.4886 46.0731 33.8813C46.0731 34.4749 45.9817 35.1142 46.7123 35.5708C47.6256 35.7534 48.1735 35.4338 48.3105 34.7032C48.3562 34.5205 48.3562 34.2922 48.3562 34.1096C48.3562 27.1689 48.3562 8.58447 48.3562 1.59817C48.3562 0.365297 47.9909 0.0456621 46.758 0.0456621C31.6438 0 16.621 0 1.59817 0C0.86758 0 0.319635 0.182648 0 0.821918V58.6758C0.22831 58.9498 0.456621 59.2694 0.684932 59.4977C3.9726 62.7854 7.21461 66.0274 10.5023 69.3151C11.0046 69.8174 11.5068 70 12.1918 70C23.653 70 35.1142 70 46.5753 70C47.4429 70 47.8995 69.863 48.1279 69.4521C47.9452 69.4977 47.8082 69.4977 47.6712 69.4977ZM10.4566 65.7534C8.44749 63.7443 6.30137 61.5982 4.24658 59.5434C6.16438 59.5434 8.3105 59.5434 10.4566 59.5434C10.4566 61.6438 10.4566 63.79 10.4566 65.7534Z" fill="#161616"/>
<path d="M47.6712 69.863C38.8585 69.863 31.6895 62.6941 31.6895 53.8813C31.6895 45.0685 38.8585 37.8995 47.6712 37.8995C56.484 37.8995 63.653 45.0685 63.653 53.8813C63.653 62.6941 56.484 69.863 47.6712 69.863ZM47.6712 40.1826C40.137 40.1826 33.9726 46.347 33.9726 53.8813C33.9726 61.4155 40.137 67.5799 47.6712 67.5799C55.2055 67.5799 61.3699 61.4155 61.3699 53.8813C61.3699 46.347 55.2055 40.1826 47.6712 40.1826Z" fill="#161616"/>
<path d="M45.0228 58.2648C45.1598 58.0365 45.2511 57.8082 45.4338 57.6255C48.6758 54.3379 51.9635 51.0959 55.2055 47.8082C55.3881 47.6255 55.5251 47.4429 55.7077 47.3516C56.21 46.9863 56.6666 47.0319 57.0776 47.4429C57.4886 47.8539 57.5342 48.3561 57.1689 48.8584C57.0319 49.0411 56.895 49.1781 56.758 49.315C53.1507 52.9224 49.5434 56.5297 45.9361 60.137C45.0228 61.0502 44.6575 61.0502 43.7443 60.137C42.3288 58.7214 40.9589 57.3516 39.5434 55.9361C38.9954 55.3881 38.9498 54.8858 39.3607 54.3835C39.8173 53.8356 40.4566 53.8356 41.0502 54.4292C42.1461 55.4794 43.1963 56.5753 44.2466 57.6255C44.4292 57.8082 44.5662 58.0365 44.7032 58.2648C44.8402 58.2648 44.9315 58.2648 45.0228 58.2648Z" fill="#161616"/>
</svg>
