<svg width="68" height="71" viewBox="0 0 68 71" fill="none" xmlns="http://www.w3.org/2000/svg">
<path d="M7.52474 59.1253C4.05326 61.37 2.03171 64.2659 1.34857 68.007C1.20915 68.7968 1.1255 69.6004 1.04185 70.4456C1.02791 70.6257 1.01397 70.8059 0.986084 70.9998H60.9493C60.9354 70.8613 60.9215 70.7227 60.9075 70.5842C60.8517 69.8498 60.782 69.1709 60.6984 68.4781C60.3917 66.2611 59.5133 64.2243 58.1052 62.4092C56.5995 60.4694 54.4943 58.9036 51.4829 57.4626C50.1166 56.8114 48.7085 56.2017 47.3283 55.6059C46.3524 55.1764 45.3346 54.7469 44.3448 54.2896C43.09 53.7215 41.654 52.9595 40.5108 51.7124C39.8277 50.9642 39.5209 50.2021 39.5628 49.3154C39.6185 48.2207 39.6185 47.0291 39.5628 45.6713C39.5209 44.7845 39.7719 44.1471 40.3714 43.5929C40.7618 43.2188 41.0824 42.7061 41.3055 42.3043C41.905 41.2374 42.5881 39.8241 42.6021 38.2168C42.6021 37.6626 42.2396 37.3162 41.654 37.3023C41.0685 37.2884 40.7757 37.5517 40.6642 38.1752C40.232 40.7108 39.2561 42.4983 37.6249 43.8007C37.6109 43.8146 37.6109 43.8561 37.597 43.87V44.5905C37.583 46.3779 37.5691 48.2207 37.6109 50.0359C37.6249 50.4515 37.7364 50.9365 37.9595 51.463C38.2941 52.2667 38.8796 52.9872 39.8416 53.7908C41.3752 55.0794 43.1597 55.8831 45.0419 56.7421L45.4741 56.9361C46.1293 57.2271 46.7846 57.5319 47.4259 57.809C48.9595 58.488 50.5488 59.1946 52.0685 59.9705C54.8847 61.4116 56.6414 63.1297 57.6033 65.3605C57.8822 66.0117 58.0913 66.6768 58.3144 67.3696C58.412 67.6744 58.5095 67.9931 58.6211 68.3118L58.872 69.0462H3.52347L3.45377 68.5751C3.45377 68.5612 3.45377 68.5612 3.45377 68.5473C3.43982 68.4781 3.41194 68.3534 3.43982 68.201C4.02537 65.4575 5.18254 63.3791 6.98102 61.8827C8.93285 60.2615 11.1914 59.1946 13.3384 58.2386C14.0076 57.9337 14.7047 57.6428 15.3739 57.3656C17.1724 56.6174 19.0406 55.8276 20.7136 54.7746C22.1496 53.8601 23.1116 52.9456 23.7389 51.8926C24.1014 51.2829 24.2966 50.7564 24.3106 50.3268C24.3524 49.2322 24.3524 48.096 24.3384 47.0014C24.3384 46.2394 24.3245 45.4496 24.3384 44.6736C24.3524 43.9808 24.2827 43.7869 23.9481 43.6206C23.7111 43.5097 23.5716 43.3019 23.474 43.1633L23.4601 43.1495C22.3029 41.5283 21.6059 39.7686 21.3967 37.9258C21.327 37.33 21.3131 36.7481 21.2852 36.1384C21.2852 36.0276 21.2852 35.9306 21.2713 35.8197C21.1876 35.8059 21.104 35.8059 21.0064 35.7781C20.9227 35.7643 20.8251 35.7366 20.7415 35.7227C20.3929 35.6534 20.0026 35.5703 19.654 35.3625C18.7339 34.7944 18.2041 33.7275 18.232 32.522C18.2599 31.2888 18.8733 30.1804 19.8492 29.64C19.891 29.6123 19.9189 29.5984 19.9329 29.5846C19.9329 29.5569 19.9189 29.5153 19.905 29.4599C19.8492 29.1827 19.7795 28.9056 19.7098 28.6424C19.3891 27.2845 19.0685 25.8712 18.8315 24.4717C18.2599 21.1186 18.3017 18.3751 18.9569 15.8395C19.8492 12.334 21.9683 10.1724 25.2586 9.41037C26.36 9.16097 27.4893 9.07783 28.5907 8.9947C28.8555 8.98084 29.1204 8.95313 29.3714 8.93927C30.4031 8.85614 30.4031 8.19105 30.3891 7.96936C30.3752 7.34584 30.0545 7.02716 29.3714 7.0133C27.9215 6.97174 26.4576 7.15186 24.9937 7.53983C21.1318 8.57902 18.5526 10.9068 17.3258 14.4678C16.4893 16.9341 16.2801 19.6776 16.6844 22.8922C16.8378 24.0422 17.0469 25.2061 17.27 26.3423C17.3815 26.9658 17.507 27.6032 17.6185 28.2267C17.6743 28.5177 17.6325 28.9333 17.3955 29.1966C16.1825 30.5545 15.9455 32.1618 16.6147 34.3926C17.033 35.7781 17.6604 36.5402 18.6223 36.8728C19.2218 37.0667 19.5007 37.4409 19.5564 38.0921C19.7656 40.7247 20.5323 42.6645 21.9823 44.1748C22.3169 44.5212 22.3448 45.0477 22.3587 45.2002C22.3587 45.7682 22.3587 46.3502 22.3587 46.9183C22.3587 47.7219 22.3448 48.5394 22.3727 49.3431C22.4005 50.2021 22.1217 50.9226 21.5501 51.4907C21.4664 51.5739 21.3828 51.657 21.2852 51.7401C20.7972 52.2251 20.3093 52.7239 19.6819 53.0565C17.8974 53.9987 16.0571 54.8993 14.2168 55.7168C13.9797 55.8138 13.7427 55.9246 13.5197 56.0216C11.526 56.9777 9.42081 57.906 7.52474 59.1253Z" fill="black"/>
<path d="M41.9329 33.201C43.327 33.1179 44.5678 32.5775 45.725 31.5522C47.3144 30.1527 48.5691 28.393 49.4753 26.3424C49.5729 26.1207 49.796 25.6219 50.4931 25.6219C50.4931 25.6219 50.4931 25.6219 50.507 25.6219C53.3511 25.6357 56.3625 25.6357 60.2801 25.6357C60.6008 25.6357 60.9075 25.6357 61.2282 25.6496C62.0786 25.6634 62.8733 25.6773 63.654 25.5664C65.6198 25.2893 67 23.6127 67 21.4928C67.014 16.5185 67.014 11.1147 67.014 4.97656C67.014 2.9536 65.3967 1.1939 63.417 1.05534C62.3017 0.98606 61.1585 0.98606 60.0431 0.999916C59.7225 0.999916 59.4018 0.999916 59.0672 0.999916C56.6832 0.999916 54.2852 0.999916 51.9012 1.01377C49.6426 1.01377 47.3841 1.02763 45.1255 1.02763C42.6578 1.02763 40.1483 1.01377 37.7225 0.999916H37.2485C37.2345 0.999916 37.2345 0.999916 37.2206 0.999916C35.9937 0.999916 35.0178 1.40174 34.2231 2.21924C33.4145 3.05059 33.052 4.08978 33.052 5.47537C33.0799 8.80079 33.0799 12.1816 33.0799 15.4655C33.0799 17.5439 33.0799 19.6777 33.0799 21.7976C33.0799 23.876 34.8644 25.6357 36.9836 25.6357C37.7643 25.6357 38.5311 25.6357 39.3258 25.6357H40.4411H40.8872L40.9848 26.0791C41.3612 27.8665 41.5983 29.7925 40.8175 31.7046C40.6363 32.148 40.6363 32.5498 40.8454 32.8269C41.0545 33.0902 41.431 33.2287 41.9329 33.201ZM37.1509 23.7097C35.8822 23.6959 35.0038 22.8091 35.0038 21.5482C35.0038 19.8024 35.0038 18.0704 35.0038 16.3245C35.0038 12.722 35.0038 9.00863 34.9899 5.35067C34.9899 4.61631 35.213 4.00665 35.6452 3.57711C36.0634 3.16144 36.6629 2.93974 37.4018 2.93974C43.6337 2.96745 49.9633 2.9536 56.0976 2.9536C58.3283 2.9536 60.559 2.9536 62.8036 2.9536C64.2256 2.9536 65.0203 3.72953 65.0482 5.14283C65.0761 6.2513 65.0761 7.37363 65.0621 8.45439C65.0621 8.88392 65.0621 9.2996 65.0621 9.72913C65.0621 12.4726 65.0621 15.2161 65.0621 17.9595V20.9524C65.0621 21.0217 65.0621 21.091 65.0621 21.1464C65.0621 21.3127 65.0621 21.4789 65.0621 21.6591C64.9924 22.8645 64.0862 23.7097 62.8733 23.7236C60.9772 23.7236 59.0951 23.7236 57.199 23.7236H55.6097C54.9265 23.7236 54.2434 23.7236 53.5602 23.7236C52.1382 23.7236 50.6743 23.7236 49.2383 23.7236C48.834 23.7236 48.597 23.8899 48.3739 24.3055C47.7884 25.4417 47.2168 26.5363 46.5754 27.6171C46.0457 28.5039 45.3207 29.3075 44.1635 30.2774L43.1458 31.1365L43.2434 29.8202C43.3689 28.1852 43.1876 26.5918 42.6578 24.6658C42.4626 23.9176 42.1838 23.7236 41.3891 23.7236C40.0507 23.7236 38.6705 23.7236 37.1509 23.7097Z" fill="black"/>
<path d="M51.706 8.5791H42.2117V10.4912H51.706V8.5791Z" fill="black"/>
<path d="M59.346 16.1583H49.8378V18.0427H59.346V16.1583Z" fill="black"/>
<path d="M59.3321 8.5929H55.9303V10.4912H59.3321V8.5929Z" fill="black"/>
<path d="M45.6553 16.1721H42.2117V18.0288H45.6553V16.1721Z" fill="black"/>
</svg>
